<?xml version="1.0" encoding="UTF-8" standalone="no"?><svg xmlns="http://www.w3.org/2000/svg" xmlns:xlink="http://www.w3.org/1999/xlink" contentScriptType="text/ecmascript" fill="#ffffff" width="80.1" zoomAndPan="magnify" contentStyleType="text/css" viewBox="-0.1 -0.1 80.1 70.5" height="70.5" data-name="1" preserveAspectRatio="xMidYMid meet" version="1"><g id="change1_1"><path d="M79.557,23.377,64.152,6.115A1.284,1.284,0,0,0,62.4,5.877a1.477,1.477,0,0,0-.724.46,6.45,6.45,0,0,1-1.171,1.079,3.986,3.986,0,0,1-1.294.6,10.913,10.913,0,0,1-2.03.3,22.376,22.376,0,0,1-2.4.006C53.539,8.268,52.162,8.13,50.831,8a39.32,39.32,0,0,0-9.747-.157l-2.209.145c-1.942.132-3.95.267-5.5.335-.893.04-1.564.05-2.107.056a12.479,12.479,0,0,1-1.5-.084,3.566,3.566,0,0,1-1.962-.807,14.2,14.2,0,0,1-2.233-2.747L22.747.587a1.24,1.24,0,0,0-.415-.414A1.8,1.8,0,0,0,20.41.449L.771,14.142a1.544,1.544,0,0,0-.381.38,1.455,1.455,0,0,0-.339.594A1.477,1.477,0,0,0,.2,16.247c2.421,4.157,5.042,8.625,7.79,13.278,2.312,3.912,4.9,8.257,7.9,13.28a5.706,5.706,0,0,0,4.792,8.814,2.14,2.14,0,0,0,.276-.023h.009v.01a2.1,2.1,0,0,0-.023.274,5.679,5.679,0,0,0,1.641,4.013l.027.027a5.68,5.68,0,0,0,3.915,1.663l.125.008a2.11,2.11,0,0,0,.275-.023l.01,0v.01a2.127,2.127,0,0,0-.024.275,5.665,5.665,0,0,0,1.642,4.012l.062.062a5.67,5.67,0,0,0,4,1.635,2.3,2.3,0,0,0,.275-.023l.01,0,0,.01a2.3,2.3,0,0,0-.023.275,5.668,5.668,0,0,0,1.584,3.946l.085.094a5.71,5.71,0,0,0,7.88.178.637.637,0,0,0,.093.122,5.716,5.716,0,0,0,7.982.083l.126-.12a5.673,5.673,0,0,0,1.634-4l-.006-.125h-.006c0-.05-.01-.1-.017-.15v-.01l.012,0a2.316,2.316,0,0,0,.277.022,5.7,5.7,0,0,0,5.708-5.71,2.1,2.1,0,0,0-.023-.274v-.011l.009,0a2.125,2.125,0,0,0,.275.023,5.705,5.705,0,0,0,5.709-5.709,2.125,2.125,0,0,0-.023-.275v-.009h.009a2.125,2.125,0,0,0,.275.023l.125-.006v0a5.682,5.682,0,0,0,4.8-8.558c1.916-3.2,3.623-6.058,5.1-8.544,1.555-2.614,3.3-5.569,5.193-8.782a1.955,1.955,0,0,0,.157-.381A3.14,3.14,0,0,0,79.557,23.377ZM22.61,47.841l-.026.028a2.729,2.729,0,0,1-3.832-3.886l6.512-6.511a2.728,2.728,0,0,1,3.859,3.856Zm5.969,5.967a2.711,2.711,0,0,1-1.929.793l-.094.005a2.709,2.709,0,0,1-1.812-.775l-.035-.035a2.743,2.743,0,0,1,.012-3.846l6.488-6.5.053-.055a2.719,2.719,0,0,1,1.874-.736l.087,0a2.709,2.709,0,0,1,1.846.8l.053.048a2.723,2.723,0,0,1,.736,1.875l.005.094a2.708,2.708,0,0,1-.8,1.835Zm5.969,5.971a2.74,2.74,0,0,1-3.858,0l-.088.088.076-.1a2.743,2.743,0,0,1,.012-3.846l6.349-6.348a2.743,2.743,0,0,1,3.834-.024l.037.037a2.74,2.74,0,0,1-.013,3.845Zm5.967,5.969a2.745,2.745,0,0,1-3.861-.005L36.6,65.69a2.746,2.746,0,0,1,.058-3.8l6.35-6.35A2.728,2.728,0,0,1,46.864,59.4Zm8.764-1.633a2.708,2.708,0,0,1-.8,1.93l-.055.058a2.745,2.745,0,0,1-3.8-.06.565.565,0,0,0-.107-.082l3.881-3.88a.6.6,0,0,0,.083.106l.055.054a2.715,2.715,0,0,1,.738,1.749ZM66.4,48.137a2.708,2.708,0,0,1-1.8.8l-.125,0a2.707,2.707,0,0,1-1.929-.793L51.256,36.851a1.493,1.493,0,0,0-2.111,2.111L60.429,50.246a2.749,2.749,0,0,1,.043,3.821l-.043.037a2.739,2.739,0,0,1-3.855,0L45.287,42.819a1.493,1.493,0,1,0-2.111,2.112L54.463,56.215a2.729,2.729,0,0,1-3.858,3.86,1.4,1.4,0,0,0-.459-.3,5.646,5.646,0,0,0-1.133-6.314l-.029-.032a5.673,5.673,0,0,0-4.04-1.668,2.266,2.266,0,0,0-.273.022l-.012,0v-.01a2.1,2.1,0,0,0,.024-.274,7.742,7.742,0,0,0-.531-2.416,6.8,6.8,0,0,0-1.131-1.753,7.256,7.256,0,0,0-3.94-2.168,6.114,6.114,0,0,0-1.59-3.94,6.217,6.217,0,0,0-4.518-1.916,6.21,6.21,0,0,0-.72-2.578,5.948,5.948,0,0,0-1.013-1.371,5.724,5.724,0,0,0-8.08,0L18,40.517c-2.729-4.563-5.165-8.656-7.443-12.508-2.473-4.183-4.854-8.238-7.1-12.093L21.168,3.567l.493.73,1.46,2.131a16.588,16.588,0,0,0,2.77,3.344,6.326,6.326,0,0,0,3.49,1.471,15.312,15.312,0,0,0,1.871.11c.6.009,1.272-.013,2.249-.056.222-.01.457-.024.691-.037l.019,0-5.877,5.875a5.714,5.714,0,0,0-.025,8.046l.027.028a5.716,5.716,0,0,0,7.987.084l5.548-5.541L66.4,44.277a2.743,2.743,0,0,1,0,3.86Zm5.527-14.843c-1.637,2.754-3.164,5.314-4.593,7.7L42.939,16.605l-.018-.021a1.493,1.493,0,0,0-2.111,0l-6.566,6.571a2.731,2.731,0,0,1-3.8-3.919l6.482-6.48c3.24-2.827,8.751-2.28,13.613-1.8l.09.009c1.413.14,2.748.272,4.028.328a26.848,26.848,0,0,0,2.7-.006,14.01,14.01,0,0,0,2.578-.378,6.954,6.954,0,0,0,2.273-1.047,8.117,8.117,0,0,0,.744-.6L76.9,24.9C75.5,27.261,73.838,30.074,71.925,33.294Z"/></g></svg>