<?xml version="1.0" encoding="UTF-8" standalone="no"?><svg xmlns="http://www.w3.org/2000/svg" xmlns:xlink="http://www.w3.org/1999/xlink" contentScriptType="text/ecmascript" fill="#000000" width="203.9" zoomAndPan="magnify" contentStyleType="text/css" viewBox="0.0 -0.4 203.9 162.4" height="162.4" preserveAspectRatio="xMidYMid meet" version="1"><g id="change1_1"><path fill="#ffffff" d="M122.52,93.37h81.42v58.69c0,5.48-4.23,9.9-9.47,9.9H9.44c-5.22,0-9.44-4.43-9.44-9.9V93.37h81.42v19.66 h41.1V93.37z M203.94,34.71v44.22H0V34.71c0-5.5,4.23-9.92,9.44-9.93h57.64c0,0,0-18.36,0-21.41c0-3.05,2.5-3.36,2.5-3.36h59.16 c0,0,2.28-0.45,2.28,3.24c0,3.71,0,21.53,0,21.53h63.45C199.7,24.79,203.94,29.21,203.94,34.71z M121.36,24.79V7.51H76.78v17.29 H121.36z M88.47,106.26h27.01V93.37H88.47V106.26z"/></g></svg>