<?xml version="1.0" encoding="UTF-8" standalone="no"?><svg xmlns="http://www.w3.org/2000/svg" xmlns:xlink="http://www.w3.org/1999/xlink" contentScriptType="text/ecmascript" fill="#ffffff" width="81.4" zoomAndPan="magnify" contentStyleType="text/css" viewBox="-0.1 -0.0 81.4 73.7" height="73.7" preserveAspectRatio="xMidYMid meet" version="1"><g id="change1_1" data-name="42"><path d="M80.928,70.739,64.807,42.072a1.338,1.338,0,0,0-1.555-.685,1.463,1.463,0,0,0-1.155.667Q56.753,49.911,51.41,57.769L31.137,23.293V13.842l.018,0H48.829a1.411,1.411,0,0,0,1.445-1.453,1.443,1.443,0,0,0,.055-.373V1.608A1.516,1.516,0,0,0,49.5.281,1.427,1.427,0,0,0,48.612,0H29.745a1.369,1.369,0,0,0-1.107.5,1.37,1.37,0,0,0-.5,1.109v22.3L.218,71.387a1.52,1.52,0,0,0,1.688,2.2H57.5a1.492,1.492,0,0,0,.168-.017,1.486,1.486,0,0,0,.9-.055h20.58a1.357,1.357,0,0,0,1.311-.844A1.426,1.426,0,0,0,80.928,70.739ZM31.137,3H47.329v7.844H31.137ZM4.166,70.59,29.818,26.969,55.469,70.59Zm54.741-.072-5.836-9.924a1.751,1.751,0,0,0,.206-.247Q58.3,52.955,63.329,45.564L77.362,70.518Z"/></g></svg>