<?xml version="1.0" encoding="UTF-8" standalone="no"?><svg xmlns="http://www.w3.org/2000/svg" xmlns:xlink="http://www.w3.org/1999/xlink" contentScriptType="text/ecmascript" fill="#ffffff" width="69.5" zoomAndPan="magnify" contentStyleType="text/css" viewBox="-0.0 0.0 69.5 78.2" height="78.2" preserveAspectRatio="xMidYMid meet" version="1"><g id="change1_1" data-name="47"><path d="M47.844,66.248a22.589,22.589,0,0,0,2.468-2.213l17.52-17.55a5.557,5.557,0,0,0,1.625-3.952v-.38h-.01a5.6,5.6,0,0,0-1.624-3.578,5.53,5.53,0,0,0-3.512-1.6,5.777,5.777,0,0,0-.191-.77,5.463,5.463,0,0,0-1.383-2.218l-.11-.11a5.533,5.533,0,0,0-3.462-1.5l-.379-.02A5.563,5.563,0,0,0,54.837,34L41.792,47.085l-23.73.046-.07-.009a5.535,5.535,0,0,0-2.349.342,5.443,5.443,0,0,0-1.909,1.2L.429,61.992A1.442,1.442,0,0,0,0,63.062l.015,13.59-.01.12A1.489,1.489,0,0,0,1.488,78.25l12.06-.023a1.476,1.476,0,0,0,1.069-.451l2.917-3.054,27.532-6.961A9.506,9.506,0,0,0,47.844,66.248ZM58.789,35.325h.14a2.638,2.638,0,0,1,1.731.758,2.826,2.826,0,0,1,.661,1.049,1.669,1.669,0,0,1,.08.4,5.778,5.778,0,0,0-1.479,1.052l-12.2,12.224a5.476,5.476,0,0,0-1.312-2.1,5.826,5.826,0,0,0-1.181-.888l11.7-11.734A2.644,2.644,0,0,1,58.789,35.325Zm-14.527,29.6L16.411,71.963a1.419,1.419,0,0,0-.75.451l-2.737,2.863-9.96.012-.013-11.63L15.786,50.784a2.571,2.571,0,0,1,2.02-.712l24.66-.038a2.611,2.611,0,0,1,1.75.668l.1.1a2.6,2.6,0,0,1,.782,1.7v.16a2.622,2.622,0,0,1-.779,1.861,2.588,2.588,0,0,1-1.848.772l-17.02.019a1.48,1.48,0,1,0,0,2.96l17.02-.019a5.548,5.548,0,0,0,3.948-1.645,5.628,5.628,0,0,0,.869-1.171L62.015,40.681a2.578,2.578,0,0,1,1.859-.772H64a2.606,2.606,0,0,1,1.731.758,2.707,2.707,0,0,1,.772,1.729v.14a2.648,2.648,0,0,1-.768,1.861L48.2,61.977a18.932,18.932,0,0,1-2.128,1.913A6.545,6.545,0,0,1,44.262,64.922ZM6.1,19.678a1.476,1.476,0,0,1,1.517-1.522q2.287-.027,4.577,0a1.5,1.5,0,0,1-.016,3.005c-.77.017-1.54,0-2.311,0v0c-.74,0-1.48.006-2.22,0A1.478,1.478,0,0,1,6.1,19.678ZM26.6,29.718a9.063,9.063,0,1,0-8.921-9.074A9.164,9.164,0,0,0,26.6,29.718Zm.3-15.1a6.041,6.041,0,1,1-6.183,6.044A6.035,6.035,0,0,1,26.9,14.621ZM11.74,7.762a1.448,1.448,0,0,1,.121-2.014,1.472,1.472,0,0,1,2.054-.041c1.138,1.107,2.264,2.229,3.361,3.377a3.6,3.6,0,0,1,.472.942,1.7,1.7,0,0,1-.975,1.408,1.343,1.343,0,0,1-1.57-.205C14.025,10.1,12.865,8.945,11.74,7.762Zm29.594,10.4c.771-.014,1.542,0,2.312,0v0c.726,0,1.451,0,2.177,0a1.506,1.506,0,1,1,.036,3.01q-2.267.028-4.533,0A1.519,1.519,0,0,1,39.8,19.632,1.5,1.5,0,0,1,41.334,18.157ZM25.244,6.03c-.008-.755,0-1.511,0-2.266h0c0-.756-.011-1.512,0-2.267a1.5,1.5,0,0,1,3,0q.023,2.289,0,4.579a1.5,1.5,0,1,1-3.007-.042ZM35.975,10.7a1.427,1.427,0,0,1,.284-1.677c.767-.794,1.556-1.566,2.336-2.347.31-.31.615-.626.935-.925a1.5,1.5,0,0,1,2.143,2.1c-1.085,1.117-2.184,2.223-3.31,3.3a2.781,2.781,0,0,1-.812.426A1.546,1.546,0,0,1,35.975,10.7ZM15.2,30.006a1.343,1.343,0,0,1,1.57-.205,1.7,1.7,0,0,1,.975,1.408,3.6,3.6,0,0,1-.472.942c-1.1,1.148-2.223,2.27-3.361,3.377a1.472,1.472,0,0,1-2.054-.041,1.448,1.448,0,0,1-.121-2.014C12.865,32.289,14.025,31.138,15.2,30.006ZM26.77,33.637a1.5,1.5,0,0,1,1.481,1.526q.025,2.289,0,4.579a1.5,1.5,0,0,1-3,0c-.014-.756,0-1.511,0-2.267h0c0-.756-.006-1.511,0-2.267A1.506,1.506,0,0,1,26.77,33.637Zm10.781-3.98a2.788,2.788,0,0,1,.812.427c1.126,1.075,2.225,2.18,3.31,3.3a1.5,1.5,0,0,1-2.143,2.106c-.32-.3-.625-.616-.935-.926-.78-.78-1.569-1.553-2.336-2.347a1.427,1.427,0,0,1-.284-1.677A1.548,1.548,0,0,1,37.551,29.657Z"/></g></svg>