<?xml version="1.0" encoding="UTF-8" standalone="no"?><svg xmlns="http://www.w3.org/2000/svg" xmlns:xlink="http://www.w3.org/1999/xlink" contentScriptType="text/ecmascript" fill="#ffffff" width="63.8" zoomAndPan="magnify" contentStyleType="text/css" viewBox="0.0 0.0 63.8 72.4" height="72.4" preserveAspectRatio="xMidYMid meet" version="1"><g id="change1_1" data-name="37"><path d="M45.521,54.247v-7.22a5.166,5.166,0,0,1,.1-.98v-5.14l-.09.06v-3.01a9.1,9.1,0,0,0-8.99-9.01q-6.15-.015-12.3.01a8.97,8.97,0,0,0-8.73,7.26,33.469,33.469,0,0,0-.21,4.14v13.91c-7.75,1.54-13.44,4.35-13.44,8.37,0,6.4,14.39,9.74,28.6,9.74s28.61-3.34,28.61-9.74C59.071,58.607,53.331,55.777,45.521,54.247Zm-27.2-16.17a6.04,6.04,0,0,1,6.11-6.11q5.61-.015,11.21,0a10.7,10.7,0,0,1,2.12.16,5.962,5.962,0,0,1,4.72,5.97c.01,2.6.01,10.05.01,15.64v5.17H18.321v-5.16C18.321,48.127,18.311,40.707,18.321,38.077Zm12.14,31.3c-15.63,0-25.6-3.99-25.6-6.74,0-1.7,3.82-3.87,10.44-5.29v4.56h30.32v-3h-.1v-1.58c6.69,1.41,10.55,3.6,10.55,5.31C56.071,65.387,46.1,69.377,30.461,69.377Zm-.143-43.464a9.164,9.164,0,0,0,9.214-8.748,9.07,9.07,0,1,0-9.214,8.748Zm.295-15.1a6.041,6.041,0,1,1-6.182,6.044A6.035,6.035,0,0,1,30.613,10.816Zm33.23,15.429a1.523,1.523,0,0,1-1.5,1.5H58.421v3.7a1.5,1.5,0,0,1-3,0v-3.7h-3.7a1.5,1.5,0,0,1,0-3h3.7V21.04a1.5,1.5,0,0,1,3,0v3.705h3.922A1.52,1.52,0,0,1,63.843,26.245ZM6.705,13.41a1.524,1.524,0,0,1-1.5-1.5v-3.7H1.5a1.5,1.5,0,0,1,0-3H5.205V1.5a1.5,1.5,0,0,1,3,0V5.205h3.921a1.5,1.5,0,0,1,0,3H8.205V11.91A1.52,1.52,0,0,1,6.705,13.41Z"/></g></svg>