<?xml version="1.0" encoding="UTF-8" standalone="no"?><svg xmlns="http://www.w3.org/2000/svg" xmlns:xlink="http://www.w3.org/1999/xlink" contentScriptType="text/ecmascript" fill="#ffffff" width="74" zoomAndPan="magnify" contentStyleType="text/css" viewBox="0.0 0.0 74.0 74.0" height="74" preserveAspectRatio="xMidYMid meet" version="1"><g id="change1_1" data-name="46"><path d="M48.878,28.266a1.546,1.546,0,0,1,.007,2.182L33.6,45.745a1.537,1.537,0,0,1-1.09.455h0a1.524,1.524,0,0,1-1.086-.449,1.457,1.457,0,0,1-.171-.2l-6.292-7.48a1.543,1.543,0,1,1,2.5-1.8l5.227,6.028L46.7,28.273a1.579,1.579,0,0,1,2.181-.007Zm10.005,8.751A21.886,21.886,0,1,1,37,15.131,21.911,21.911,0,0,1,58.883,37.017Zm-3,0A18.886,18.886,0,1,0,37,55.9,18.907,18.907,0,0,0,55.883,37.017ZM74,31.889V43.6l-1.374.116c-.264.022-.551.043-.86.043H66.812c-.925.011-1.105.146-1.363,1.028a33.245,33.245,0,0,1-2.9,6.957c-.407.726-.425.912.27,1.618.8.818,1.626,1.629,2.44,2.433.531.525,1.059,1.047,1.578,1.566L67.9,58.416l-1.054,1.061c-1.654,1.667-3.29,3.3-4.95,4.955l-3.538,3.533-1.061-1.08c-1.013-1.032-2.063-2.1-3.132-3.17a8.215,8.215,0,0,0-1.6-1.387,8.446,8.446,0,0,0-2,.841,43.1,43.1,0,0,1-5.519,2.187c-1.238.427-1.326.543-1.326,1.777v6.9H30.3v-6.92c0-1.2-.074-1.3-1.311-1.752-2.2-.805-4.328-1.682-6.325-2.606-1.253-.593-1.3-.546-2.091.245-1.3,1.3-2.591,2.591-3.83,3.849l-1.061,1.077L6.133,58.4l4.975-4.955c.714-.725.766-.825.243-1.964-1-2.187-1.906-4.37-2.68-6.49-.426-1.159-.6-1.235-1.639-1.235H0v-13.4H6.693c1.521,0,1.521,0,2.062-1.583a56.3,56.3,0,0,1,2.4-5.794c.74-1.522.74-1.522-.369-2.633C9.619,19.173,8.449,18,7.28,16.815l-.164-.166-.634-1.234,9.206-9.206L18,8.521c.831.834,1.689,1.7,2.547,2.542.843.844.876.877,2.144.277,2.053-.96,4.166-1.832,6.286-2.6,1.28-.468,1.323-.608,1.323-1.732V0H43.719l0,4.31c0,1.008-.008,2.016,0,3.023.013.99.357,1.088.721,1.193a35.87,35.87,0,0,1,7.473,3.079c.482.264.68.325,1.3-.281.921-.893,1.815-1.79,2.711-2.69l.892-.893c.106-.107.214-.209.319-.309L58.42,6.153l9.525,9.524-1.077,1.061c-1.259,1.239-2.554,2.515-3.811,3.773-.939.939-.939.939-.308,2.268.987,2.135,1.846,4.221,2.559,6.215.454,1.269.555,1.345,1.8,1.358h5.351l1.424.325Zm-3,1.463H67.1c-2.533-.026-3.736-.9-4.611-3.347-.684-1.91-1.509-3.913-2.452-5.953-1.013-2.137-1.154-3.605.9-5.662.906-.907,1.833-1.824,2.751-2.729l-5.275-5.274-.363.364c-.909.913-1.815,1.822-2.742,2.721a3.765,3.765,0,0,1-4.832.765,32.959,32.959,0,0,0-6.858-2.826,3.9,3.9,0,0,1-2.9-4.039c-.012-1.025-.008-2.05,0-3.075l0-1.3H33.3V7.013c0,2.786-1.262,3.807-3.3,4.551s-4.07,1.573-6.034,2.491c-2.054.97-3.547,1.123-5.534-.862-.857-.845-1.722-1.714-2.559-2.556l-.183-.183-5.269,5.268q1.245,1.254,2.493,2.5c2.226,2.226,2.183,3.524.946,6.064a53.344,53.344,0,0,0-2.267,5.469c-.849,2.483-1.759,3.6-4.9,3.6H3v7.405H7.032c2.721,0,3.75,1.281,4.456,3.2.748,2.047,1.619,4.156,2.59,6.27.865,1.885,1.026,3.434-.84,5.329L10.38,58.4l5.282,5.268c.914-.922,1.849-1.857,2.785-2.793,1.949-1.948,3.486-1.786,5.484-.84,1.911.884,3.961,1.729,6.083,2.505,2.026.741,3.281,1.764,3.281,4.57v3.92h7.424v-3.9c0-2.523.912-3.775,3.364-4.618a40.52,40.52,0,0,0,5.148-2.034c3.487-1.731,4.343-1.6,7.051,1.113.707.707,1.406,1.414,2.092,2.11l1.4-1.4c1.3-1.3,2.59-2.583,3.883-3.881l-.5-.5c-.823-.813-1.653-1.634-2.469-2.462a3.917,3.917,0,0,1-.747-5.193,30.252,30.252,0,0,0,2.634-6.329,3.994,3.994,0,0,1,4.225-3.186H71Z"/></g></svg>