<?xml version="1.0" encoding="UTF-8" standalone="no"?><svg xmlns="http://www.w3.org/2000/svg" xmlns:xlink="http://www.w3.org/1999/xlink" contentScriptType="text/ecmascript" fill="#ffffff" width="67.5" zoomAndPan="magnify" contentStyleType="text/css" viewBox="-2.1 -0.0 67.5 80.4" height="80.4" preserveAspectRatio="xMidYMid meet" version="1"><g id="change1_1" data-name="38"><path d="M59.132,25.68a1.3,1.3,0,0,0,.452-.565,8.475,8.475,0,0,0-2.343-9.76,8.464,8.464,0,0,0-10.169-.129,1.458,1.458,0,0,0-.215.2,32.407,32.407,0,0,0-10.292-3.008V7.429h3.877a1.321,1.321,0,0,0,1.273-1.687,1.315,1.315,0,0,0,.085-.456V1.359A1.373,1.373,0,0,0,40.442,0a1.487,1.487,0,0,0-.494.11A1.377,1.377,0,0,0,39.4,0H25.521a1.23,1.23,0,0,0-1.086.57,1.359,1.359,0,0,0-1.058,1.312V5.809a1.263,1.263,0,0,0,.053.34,1.27,1.27,0,0,0,1.3,1.28h3.878V12.44a32.433,32.433,0,0,0-10.4,3.139,1.362,1.362,0,0,0-.33-.353,8.462,8.462,0,0,0-10.168.129,8.476,8.476,0,0,0-2.344,9.76,1.241,1.241,0,0,0,.764.726A32.685,32.685,0,1,0,65.385,44.878,32.5,32.5,0,0,0,59.132,25.68Zm-3.589-8.2a5.708,5.708,0,0,1,1.765,5.918,32.927,32.927,0,0,0-7.756-6.509A5.673,5.673,0,0,1,55.543,17.476ZM26.093,4.713v-2H39.084v2Zm7.756,2.716v4.777c-.385-.014-.769-.03-1.157-.03-.457,0-.91.016-1.363.035V7.429ZM9.414,17.476a5.675,5.675,0,0,1,6.216-.466,32.935,32.935,0,0,0-7.86,6.744A5.708,5.708,0,0,1,9.414,17.476ZM32.692,74.854A29.981,29.981,0,1,1,62.669,44.878,30.013,30.013,0,0,1,32.692,74.854ZM47.567,34.182a1.546,1.546,0,0,1,.007,2.182l-15.285,15.3a1.537,1.537,0,0,1-1.09.455h-.005a1.53,1.53,0,0,1-1.086-.449,1.339,1.339,0,0,1-.17-.2l-6.293-7.479a1.543,1.543,0,1,1,2.5-1.8l5.227,6.028L45.385,34.189a1.581,1.581,0,0,1,2.182-.007Zm-14.875-15.1A25.743,25.743,0,1,0,58.431,44.829,25.771,25.771,0,0,0,32.692,19.083Zm.976,48.671a1.235,1.235,0,0,0,.017-.162V63.4a1.358,1.358,0,0,0-2.716,0v4.189c0,.039.009.077.012.116A22.983,22.983,0,0,1,9.841,46.935a1.28,1.28,0,0,0,.234.024h3.141a1.4,1.4,0,0,0,.961-.4,1.359,1.359,0,0,0-.961-2.319H10.075a1.341,1.341,0,0,0-.319.045A22.978,22.978,0,0,1,30.707,21.964v4.265a1.358,1.358,0,0,0,2.716,0V21.891A22.977,22.977,0,0,1,55.6,43.458H52.223a1.358,1.358,0,0,0,0,2.716H55.6A22.977,22.977,0,0,1,33.668,67.754Z"/></g></svg>