<?xml version="1.0" encoding="UTF-8" standalone="no"?><svg xmlns="http://www.w3.org/2000/svg" xmlns:xlink="http://www.w3.org/1999/xlink" contentScriptType="text/ecmascript" fill="#ffffff" width="69.5" zoomAndPan="magnify" contentStyleType="text/css" viewBox="-0.0 -1.2 69.5 74.0" height="74" preserveAspectRatio="xMidYMid meet" version="1"><g id="change1_1" data-name="10"><path d="M69.48,36.78a5.6,5.6,0,0,0-1.62-3.58,5.529,5.529,0,0,0-3.51-1.6,5.778,5.778,0,0,0-.19-.77,5.463,5.463,0,0,0-1.38-2.22l-.11-.11A5.538,5.538,0,0,0,59.21,27l-.38-.02a5.56,5.56,0,0,0-3.95,1.63L41.82,41.68l-23.73.02-.07-.01a5.556,5.556,0,0,0-2.35.34,5.428,5.428,0,0,0-1.91,1.2L.44,56.54a1.448,1.448,0,0,0-.43,1.07V71.2L0,71.32A1.49,1.49,0,0,0,1.48,72.8l12.06-.01a1.473,1.473,0,0,0,1.07-.45l2.92-3.05,27.54-6.93a9.5,9.5,0,0,0,2.78-1.51,22.452,22.452,0,0,0,2.47-2.21L67.86,41.11a5.56,5.56,0,0,0,1.63-3.95v-.38ZM56.97,30.7a2.642,2.642,0,0,1,1.86-.76h.14a2.641,2.641,0,0,1,1.73.76,2.814,2.814,0,0,1,.66,1.05,1.669,1.669,0,0,1,.08.4,5.759,5.759,0,0,0-1.48,1.05L47.75,45.41a5.482,5.482,0,0,0-1.31-2.1,5.8,5.8,0,0,0-1.18-.89Zm9.57,6.46a2.652,2.652,0,0,1-.77,1.86L48.21,56.58a18.965,18.965,0,0,1-2.13,1.91,6.522,6.522,0,0,1-1.81,1.03L16.41,66.53a1.411,1.411,0,0,0-.75.45l-2.74,2.86H2.96V58.21L15.81,45.35a2.57,2.57,0,0,1,2.02-.71l24.66-.01a2.618,2.618,0,0,1,1.75.67l.1.1a2.612,2.612,0,0,1,.78,1.7v.16a2.619,2.619,0,0,1-.78,1.86,2.587,2.587,0,0,1-1.85.77H25.47a1.48,1.48,0,1,0,0,2.96H42.49a5.545,5.545,0,0,0,3.95-1.64,5.648,5.648,0,0,0,.87-1.17L62.05,35.3a2.576,2.576,0,0,1,1.86-.77h.13a2.6,2.6,0,0,1,1.73.76,2.7,2.7,0,0,1,.77,1.73ZM31.463,29.94a14.97,14.97,0,1,0-14.88-14.99A15.019,15.019,0,0,0,31.463,29.94Zm.11-26.96A11.99,11.99,0,1,1,19.563,14.9,12.012,12.012,0,0,1,31.573,2.98Zm-6.78,13.86a1.623,1.623,0,1,1,2.3-2.28c.7.69,1.38,1.39,2.11,2.13,1.51-1.51,2.95-2.95,4.39-4.4l2.36-2.36a1.631,1.631,0,1,1,2.3,2.29c-2.6,2.62-5.21,5.22-7.82,7.83a1.607,1.607,0,0,1-2.43,0C26.923,18.99,25.863,17.92,24.793,16.84Z"/></g></svg>