<?xml version="1.0" encoding="UTF-8" standalone="no"?><svg xmlns="http://www.w3.org/2000/svg" xmlns:xlink="http://www.w3.org/1999/xlink" contentScriptType="text/ecmascript" fill="#ffffff" width="68.7" zoomAndPan="magnify" contentStyleType="text/css" viewBox="-0.0 -0.5 68.7 74.8" height="74.8" preserveAspectRatio="xMidYMid meet" version="1"><g id="change1_1" data-name="17"><path d="M50.22,28.129a1.494,1.494,0,0,1-1.05,1.84,24.392,24.392,0,0,0-10.29,4.15A1.5,1.5,0,0,1,36.7,33.3a1.563,1.563,0,0,1,.666-1.772,26.462,26.462,0,0,1,11.01-4.45,1.541,1.541,0,0,1,1.84,1.05h0Zm0-8.284h0a1.541,1.541,0,0,0-1.84-1.05,26.462,26.462,0,0,0-11.01,4.45,1.563,1.563,0,0,0-.666,1.772,1.5,1.5,0,0,0,2.178.823,24.522,24.522,0,0,1,10.29-4.15,1.494,1.494,0,0,0,1.05-1.84Zm0-8.28h0a1.541,1.541,0,0,0-1.84-1.05,26.462,26.462,0,0,0-11.01,4.45,1.563,1.563,0,0,0-.666,1.772,1.5,1.5,0,0,0,2.178.823,24.375,24.375,0,0,1,10.29-4.14,1.509,1.509,0,0,0,1.05-1.85ZM16.1,13.419a24.375,24.375,0,0,1,10.29,4.14,1.5,1.5,0,0,0,2.05-.54,1.437,1.437,0,0,0,.038-1.395,1.758,1.758,0,0,0-.58-.66,26.462,26.462,0,0,0-11.01-4.45,1.486,1.486,0,0,0-1.805,1.923A1.362,1.362,0,0,0,16.1,13.419Zm0,16.55a24.392,24.392,0,0,1,10.29,4.15,1.5,1.5,0,0,0,2.05-.54,1.437,1.437,0,0,0,.038-1.4,1.758,1.758,0,0,0-.58-.66,26.462,26.462,0,0,0-11.01-4.45A1.485,1.485,0,0,0,15.083,29,1.343,1.343,0,0,0,16.1,29.969Zm0-8.28a24.522,24.522,0,0,1,10.29,4.15,1.5,1.5,0,0,0,2.05-.54,1.435,1.435,0,0,0,.038-1.394,1.753,1.753,0,0,0-.58-.661,26.462,26.462,0,0,0-11.01-4.45,1.485,1.485,0,0,0-1.805,1.922A1.343,1.343,0,0,0,16.1,21.689Zm52.59,33.6V62.9a3.034,3.034,0,0,1-3.03,3.03H64.12v4.94a3.436,3.436,0,0,1-3.43,3.43H3.43A3.436,3.436,0,0,1,0,70.869v-6.82a3.436,3.436,0,0,1,3.43-3.43H4.57v-5.33a3.034,3.034,0,0,1,3.03-3.03H19.9a53.037,53.037,0,0,0-16.61-1.83,1.676,1.676,0,0,1-1.44-.25,1.409,1.409,0,0,1-.56-1.16V9.749a1.411,1.411,0,0,1,.59-1.19,1.741,1.741,0,0,1,1.46-.21,30.871,30.871,0,0,1,5.84.19V1.579A1.449,1.449,0,0,1,10.62.119a31.37,31.37,0,0,1,22.32,6.92A31.382,31.382,0,0,1,55.23.109a1.484,1.484,0,0,1,1.47,1.47v6.95a31.583,31.583,0,0,1,5.82-.18,1.758,1.758,0,0,1,1.47.21,1.419,1.419,0,0,1,.6,1.19v39.27a1.417,1.417,0,0,1-.57,1.16,1.687,1.687,0,0,1-1.47.24,52.537,52.537,0,0,0-16.68,1.84H65.66A3.034,3.034,0,0,1,68.69,55.289ZM34.5,45.149a31.316,31.316,0,0,1,19.1-5.83V3.109a28.51,28.51,0,0,0-19.1,6.64Zm-22.23-5.83c.32-.01.65-.02.97-.02a31.386,31.386,0,0,1,18.13,5.85V9.749a28.576,28.576,0,0,0-19.1-6.64Zm16.58,12.94a42.6,42.6,0,0,1,4.09,2.29,41.59,41.59,0,0,1,4.1-2.29,51.538,51.538,0,0,1,24.45-4.98V11.4a29.6,29.6,0,0,0-4.79.27l-.01,29.27a1.53,1.53,0,0,1-.41,1.19,1.379,1.379,0,0,1-1.11.37,28.208,28.208,0,0,0-21.11,6.92,1.447,1.447,0,0,1-1.13.39,1.515,1.515,0,0,1-1.12-.39,28.171,28.171,0,0,0-21.1-6.92,1.365,1.365,0,0,1-1.11-.37,1.524,1.524,0,0,1-.42-1.19V11.669a29.791,29.791,0,0,0-4.8-.27v35.88c.71-.03,1.43-.04,2.13-.04A51.123,51.123,0,0,1,28.85,52.259Zm32.61,13.67H7.6a3.026,3.026,0,0,1-3-2.65H3.43a.777.777,0,0,0-.77.77v6.82a.784.784,0,0,0,.77.77H60.69a.784.784,0,0,0,.77-.77Zm4.57-10.64a.376.376,0,0,0-.37-.37H38.96a38.562,38.562,0,0,0-4.28,2.46c-.16.11-.33.22-.49.33a2.152,2.152,0,0,1-1.25.39,2.265,2.265,0,0,1-1.25-.38c-.16-.11-.33-.23-.5-.34a38.215,38.215,0,0,0-4.32-2.46H7.6a.378.378,0,0,0-.38.37V62.9a.378.378,0,0,0,.38.37H65.66a.376.376,0,0,0,.37-.37Z"/></g></svg>