<?xml version="1.0" encoding="UTF-8" standalone="no"?><svg xmlns="http://www.w3.org/2000/svg" xmlns:xlink="http://www.w3.org/1999/xlink" contentScriptType="text/ecmascript" fill="#ffffff" width="71.9" zoomAndPan="magnify" contentStyleType="text/css" viewBox="-0.2 -1.3 71.9 68.2" height="68.2" preserveAspectRatio="xMidYMid meet" version="1"><g id="change1_1" data-name="20"><path d="M71.657,22.828A22.811,22.811,0,0,0,35.828,4.079a22.821,22.821,0,1,0-22.81,39.359c-.007.239-.018.478-.018.719a22.829,22.829,0,0,0,45.657,0c0-.241-.011-.48-.019-.719A22.857,22.857,0,0,0,71.657,22.828ZM3,22.828A19.791,19.791,0,0,1,33.36,6.058,22.772,22.772,0,0,0,26,22.828c0,.241.011.48.018.719A22.9,22.9,0,0,0,13.344,40.235,19.842,19.842,0,0,1,3,22.828Zm39.633-.464a22.867,22.867,0,0,0-13.61,0A19.769,19.769,0,0,1,35.828,7.892,19.762,19.762,0,0,1,42.633,22.364Zm-6.8,15.4A19.8,19.8,0,0,1,29.2,25.492a19.452,19.452,0,0,1,13.256,0A19.786,19.786,0,0,1,35.828,37.764ZM45.313,26.75A19.858,19.858,0,0,1,55.456,41.493,19.58,19.58,0,0,1,38.3,39.6,22.812,22.812,0,0,0,45.313,26.75ZM33.36,39.6a19.582,19.582,0,0,1-17.16,1.9A19.864,19.864,0,0,1,26.344,26.75,22.812,22.812,0,0,0,33.36,39.6Zm2.469,24.387A19.841,19.841,0,0,1,16.023,44.621a22.792,22.792,0,0,0,19.805-3.043,22.792,22.792,0,0,0,19.805,3.043A19.84,19.84,0,0,1,35.829,63.985Zm22.484-23.75A22.9,22.9,0,0,0,45.638,23.547c.008-.239.019-.478.019-.719A22.768,22.768,0,0,0,38.3,6.059,19.813,19.813,0,1,1,58.313,40.235Z"/></g></svg>