<?xml version="1.0" encoding="UTF-8" standalone="no"?><svg xmlns="http://www.w3.org/2000/svg" xmlns:xlink="http://www.w3.org/1999/xlink" contentScriptType="text/ecmascript" fill="#000000" width="304.7" zoomAndPan="magnify" contentStyleType="text/css" viewBox="0.0 -0.0 304.7 354.4" height="354.4" preserveAspectRatio="xMidYMid meet" version="1"><defs><clipPath id="a"><path d="M 152 152 L 304.71875 152 L 304.71875 354.351562 L 152 354.351562 Z M 152 152"/></clipPath><clipPath id="b"><path d="M 152 0 L 304.71875 0 L 304.71875 153 L 152 153 Z M 152 0"/></clipPath></defs><g><g id="change1_1"><path fill="#ffffff" d="M 152.359375 -0.00390625 C 68.25 -0.00390625 0 68.246094 0 152.355469 L 152.359375 152.355469 L 152.359375 -0.00390625"/></g><g id="change2_1"><path fill="#2b41b5" d="M 0 152.355469 C 0 236.460938 68.25 304.710938 152.359375 304.710938 L 152.359375 152.355469 L 0 152.355469"/></g><g id="change3_1" clip-path="url(#a)"><path fill="#ffffff" d="M 304.714844 152.355469 L 152.359375 152.355469 L 152.359375 354.351562 C 152.359375 354.351562 270.015625 276.21875 292.882812 211.414062 C 300.464844 193.257812 304.714844 173.265625 304.714844 152.355469"/></g><g id="change4_1" clip-path="url(#b)"><path fill="#2b41b5" d="M 152.359375 -0.00390625 L 152.359375 152.355469 L 304.714844 152.355469 C 304.714844 68.246094 236.464844 -0.00390625 152.359375 -0.00390625"/></g></g></svg>