<?xml version="1.0" encoding="UTF-8" standalone="no"?><svg xmlns="http://www.w3.org/2000/svg" xmlns:xlink="http://www.w3.org/1999/xlink" contentScriptType="text/ecmascript" fill="#ffffff" width="63.8" zoomAndPan="magnify" contentStyleType="text/css" viewBox="-3.5 -3.5 63.8 72.3" height="72.3" preserveAspectRatio="xMidYMid meet" version="1"><g id="change1_1" data-name="27"><path d="M52.124,60.218a8.152,8.152,0,0,0-6.756-5.8c-.88-.145-1.633-1.065-2.7-1.807,14.309-9.071,17.625-26.618,9.572-39.428A28.459,28.459,0,0,0,15.331,3.109a28.036,28.036,0,0,0-13.1,35.975,28.565,28.565,0,0,0,38.13,14.758,2.786,2.786,0,0,1,.573,3.062A22.37,22.37,0,0,0,39.9,60.435a2.532,2.532,0,0,0,.135,1.573c.924,1.823,1.885,3.637,2.971,5.366.382.608,1.25,1.414,1.741,1.319.591-.114,1.173-1.019,1.477-1.707a29.035,29.035,0,0,0,1.07-3.418c1.686.406,3.112.835,4.569,1.075,1.383.228,2.052-.686,1.507-1.962C53.007,61.836,52.434,61.076,52.124,60.218ZM38.21,42.846a17.372,17.372,0,0,0,7.7-13.269,17.041,17.041,0,0,0-3.471-11.949,17.665,17.665,0,0,0-30.59,17.014c3.278,8.157,12.713,13.791,23.281,9.937L38.7,51.144c-9.887,5.025-24.727,2.175-32-9.78A25.1,25.1,0,0,1,15.389,6.4C28.023-.81,43.645,3.433,50.507,16.043a25.027,25.027,0,0,1-8.72,33.52Zm-3-18.015a7.369,7.369,0,0,0-7.05-4.319,7.668,7.668,0,1,0,.866,15.294,2,2,0,0,1,2.438,1.328c.767,1.5,1.69,2.915,2.605,4.466-6.682,3.272-15.418.009-18.884-6.731a14.629,14.629,0,0,1,6.106-19.656,14.817,14.817,0,0,1,19.9,5.856c3.707,6.564,1.625,15.467-4.638,19.2-1.022-1.871-2.089-3.716-3.015-5.63-.144-.3.266-.987.579-1.362A7.418,7.418,0,0,0,35.208,24.831Zm-8.052,4.222c.683,1.191,1.467,2.323,2.269,3.576a4.521,4.521,0,0,1-5.491-2.461,4.792,4.792,0,0,1,7.934-5.182c1.615,1.723,1.639,4.23-.072,6.433-.769-1.332-1.45-2.516-2.138-3.7-.465-.8-1.1-1.242-2.021-.76A1.345,1.345,0,0,0,27.156,29.053ZM45.707,60.445c-.757.392-1.018,1.741-1.495,2.663-1.691-1.55-1.742-2.328-.3-5.958,2.1.628,4.523.613,4.946,3.465C47.785,60.52,46.511,60.029,45.707,60.445Z"/></g></svg>