<?xml version="1.0" encoding="UTF-8" standalone="no"?><svg xmlns="http://www.w3.org/2000/svg" xmlns:xlink="http://www.w3.org/1999/xlink" contentScriptType="text/ecmascript" fill="#ffffff" width="56.2" zoomAndPan="magnify" contentStyleType="text/css" viewBox="-0.2 -0.6 56.2 76.9" height="76.9" preserveAspectRatio="xMidYMid meet" version="1"><g id="change1_1" data-name="22"><path d="M10.069,72.017v0ZM55.943,37.7a9.243,9.243,0,0,1-2.235,6.281c-1.142,1.339-6.687,8.178-8.24,10.059l0,0a1.658,1.658,0,0,1-.2.245,3.392,3.392,0,0,1-.514.507c-1.709,1.822-2.113,4.023-2.073,6.626.163,10.556.065,1.951.064,12.51A3.319,3.319,0,0,1,42.705,75a2.426,2.426,0,0,1-.17.5c-.4.763-1.914.711-2.026.7H8.452a1.359,1.359,0,0,1-1.247-.7,1.882,1.882,0,0,1-.307-.738A5.992,5.992,0,0,1,6.871,73.7c0-10.77-.012-2.374.019-13.145a2.957,2.957,0,0,0-1.052-2.416,14.334,14.334,0,0,1-4.9-11.465c.008-.407,0-.815,0-1.223,0-.029,0-.057,0-.086C.924,40.986.946,27.951.922,23.575a8.573,8.573,0,0,0-.3-1.542,18.332,18.332,0,0,1-.582-3.112c-.072-3.7-.036-7.4-.027-11.1A7.406,7.406,0,0,1,13,2.573c.049.05.11.088.239.19A7.7,7.7,0,0,1,19,.046,7.544,7.544,0,0,1,24.865,2.8,7.529,7.529,0,0,1,36.484,2.77c.229-.211.433-.4.634-.586A7.133,7.133,0,0,1,45.106.6a7.1,7.1,0,0,1,4.633,6.7c.087,1.81-.013,3.629.051,5.442a1.485,1.485,0,0,0,.607,1.047,10.932,10.932,0,0,1,5.539,9.934C55.938,28.377,55.921,33.038,55.943,37.7ZM38.115,12.418H46.52c0-1.88.116-3.724-.032-5.546a4.185,4.185,0,0,0-8.042-.988C37.727,8.005,38.193,10.2,38.115,12.418ZM26.528,19.5A4.019,4.019,0,0,0,31,23.241a.833.833,0,0,0,.01-.194c-1.883-4.593-.826-7.7,3.415-10.117a1,1,0,0,0,.452-.7c.026-1.777.079-3.561-.04-5.332a4.18,4.18,0,0,0-8.307.122Q26.409,13.256,26.528,19.5ZM14.825,7.622q-.051,5.652,0,11.305a4.234,4.234,0,1,0,8.459-.069c.019-1.848,0-3.7,0-5.546,0-1.884.016-3.769,0-5.653a4.233,4.233,0,1,0-8.46-.037ZM3.217,18.917a4.2,4.2,0,1,0,8.4.059c.029-1.884.006-3.768.006-5.652,0-1.919.023-3.839-.005-5.758A4.15,4.15,0,0,0,7.444,3.243,4.154,4.154,0,0,0,3.217,7.614Q3.187,13.266,3.217,18.917ZM52.73,23.429a7.577,7.577,0,0,0-7.841-7.794q-3.788-.019-7.578,0a3.778,3.778,0,0,0-4.019,3.781,3.838,3.838,0,0,0,4.036,3.907c1.494.023,2.989,0,4.483.006,1.308,0,1.938.417,2.079,1.347s-.355,1.512-1.606,1.867a1.584,1.584,0,0,0-.261.159c-.124,1.639-.257,3.337-.382,5.035-.128,1.741-.574,2.121-2.33,2.182a30.6,30.6,0,0,0-5.405.365,9.425,9.425,0,0,0-7.194,8.645c-.071,1.136-.139,2.273-.215,3.408-.08,1.182-.682,1.832-1.665,1.81a1.526,1.526,0,0,1-1.51-1.9,35.18,35.18,0,0,1,1.041-7.131c1.673-5.1,6.405-8.245,11.941-8.382.672-.016,1.346,0,2.169,0,.12-1.385.234-2.712.355-4.121a15.846,15.846,0,0,1-2.96-.281,7.153,7.153,0,0,0-3.789-.024c-2.851.677-5.218-.43-7.163-2.524-3.443,3.615-8.214,3.635-11.672.039C10.469,26.464,8.1,27.108,4.188,25.9c-.02.395-.053.763-.054,1.13,0,2.915-.006,12.845-.011,17.16,0,.012,0,.023,0,.034.022.96,0,1.92.007,2.879A10.7,10.7,0,0,0,7.7,55.467,6.85,6.85,0,0,1,10.105,61.2c-.116,5.089-.037,5.78-.036,10.825V73.2H39.543c0-1.647,0-1.4,0-.871V71.159c0-5.8.016-7.137-.012-12.932a5.041,5.041,0,0,1,1.253-3.516c.688-.787,1.326-1.619,2-2.421l.025-.033c1.232-1.52,7.4-9.056,8.64-10.565a5.561,5.561,0,0,0,1.3-3.64C52.74,33.178,52.768,28.3,52.73,23.429Z"/></g></svg>