<?xml version="1.0" encoding="UTF-8" standalone="no"?><svg xmlns="http://www.w3.org/2000/svg" xmlns:xlink="http://www.w3.org/1999/xlink" contentScriptType="text/ecmascript" fill="#ffffff" width="68.2" zoomAndPan="magnify" contentStyleType="text/css" viewBox="-0.0 -0.0 68.2 77.2" height="77.2" preserveAspectRatio="xMidYMid meet" version="1"><g id="change1_1" data-name="21"><path d="M67.441,68.109,55.746,75.953c-.008,0-.016.007-.024.012s-.012.012-.019.017a1.5,1.5,0,0,1-2.077-.4c-1.916-2.833-7.292-10.772-7.44-11a.6.6,0,0,0-.516-.325,28.516,28.516,0,0,1-4.981-1.644,11.124,11.124,0,0,1-2.5-1.569,11.329,11.329,0,0,1-2.653-3.33c-.331-.57-.737-1.168-1.239-1.879-.5.711-.906,1.31-1.236,1.88a10.7,10.7,0,0,1-5.15,4.907,28.643,28.643,0,0,1-4.979,1.65.6.6,0,0,0-.517.326c-.147.232-6.029,8.935-7.941,11.771a1.5,1.5,0,0,1-2.076.4.163.163,0,0,1-.02-.017.127.127,0,0,1-.023-.012L.646,68.91A1.415,1.415,0,0,1,.37,66.762a1.329,1.329,0,0,1,.119-.224L3.66,61.862h0c.023-.032.046-.066.069-.1l.459-.681c.016-.025.037-.043.054-.066.422-.613.85-1.233,1.305-1.89.743-1.074,1.141-1.64,1.2-1.729.385-.6.772-1.225,1.207-1.953a.594.594,0,0,0,.077-.372,16.388,16.388,0,0,1-.283-8.279l-.017-.117a13.708,13.708,0,0,1,.938-2.412c.193-.4.381-.714.548-.994.09-.148.173-.287.248-.426l2.032-3.538,1.458-2.626c.126-.236.25-.473.374-.713l.083-.159a3.547,3.547,0,0,1,2.662-2.249l.1-.022a4.5,4.5,0,0,1,3.55.7,4.253,4.253,0,0,1,.763.684c.513-.766,1.4-2.055,2.342-3.358.015-.592.031-1.126.046-1.613.043-1.459.075-2.513.013-3.452a11.261,11.261,0,0,1,.345-4.238,11.121,11.121,0,0,1,1.2-2.692,28.549,28.549,0,0,1,3.222-4.127.593.593,0,0,0,.247-.556c-.007-.275.009-9.979.019-13.395A1.492,1.492,0,0,1,29.43,0c.009,0,.016,0,.025,0s.017,0,.026,0l14.1.036A1.421,1.421,0,0,1,45.005,1.67a1.437,1.437,0,0,1,.026.252l-.007,2.552h0l0,.121V7.718c0,.029-.007.056-.008.085-.01.743-.02,1.5-.032,2.293-.02,1.3-.036,2-.034,2.1.014.712.041,1.447.085,2.292a.577.577,0,0,0,.144.352,16.45,16.45,0,0,1,4.847,6.73l.08.087a13.853,13.853,0,0,1,.563,2.525c.062.44.081.8.1,1.131.008.173.016.334.031.491l.282,4.067q.126,1.5.25,2.99c.019.184.039.367.06.551a3.751,3.751,0,0,1,1,.1l.1.021a3.546,3.546,0,0,1,2.665,2.245l.083.159c.125.24.249.477.376.713q.729,1.313,1.461,2.624l2.036,3.536c.075.139.158.277.248.425.169.28.357.593.55.993a13.807,13.807,0,0,1,.942,2.411l-.017.117a16.391,16.391,0,0,1-.272,8.279.59.59,0,0,0,.077.373c.436.726.823,1.352,1.209,1.951.057.089.456.655,1.2,1.728.456.655.884,1.275,1.307,1.888.017.022.038.041.055.065l.459.681c.023.033.047.066.069.1h0l2.66,3.915a1.444,1.444,0,0,1,.12.223A1.416,1.416,0,0,1,67.441,68.109Zm-41.772-24.6c-.015.609.157,1.339.985,1.351s1.013-.713,1.027-1.314v-.266q.043-4.063.1-8.131v-.313A1.511,1.511,0,0,1,29.266,33.3a1.486,1.486,0,0,1,1.5,1.575c0,2.006-.031,4.012-.059,6.018-.026,1.785-.053,3.569-.069,5.354a1.168,1.168,0,0,0,.526,1.025.99.99,0,0,0,.987.005,1.08,1.08,0,0,0,.565-1.126c.03-3.321.069-6.629.108-9.946l.014-.836a6.159,6.159,0,0,1,.044-.751,1.27,1.27,0,0,1,1.172-1.2,2.059,2.059,0,0,1,1.349.427,1.783,1.783,0,0,1,.43,1.247c-.017,1.823.013,2.983.041,4.128.029,1.177.06,2.392.036,4.31l-.009.652c-.013.841-.025,1.681-.009,2.523a.991.991,0,0,0,1.052.981,1.036,1.036,0,0,0,1.06-.979c.01-.168.014-.341.01-.514.026-2.253,0-3.865-.016-5.425-.022-1.617-.046-3.291-.01-5.654a1.982,1.982,0,0,1,.273-1.031,1.422,1.422,0,0,1,1.645-.6,1.488,1.488,0,0,1,1.072,1.579l-.08,6.876c-.022,1.5-.045,2.99-.049,4.485a1.093,1.093,0,0,0,.508.968.977.977,0,0,0,.987-.008c.359-.2.5-.518.507-1.108v-.142c.043-4.167.1-8.309.152-12.461v-.128a1.52,1.52,0,0,1,1.411-1.694,1.39,1.39,0,0,1,.923.259,1.674,1.674,0,0,1,.684,1.179l.072.449c.055.358.111.715.194,1.073a1,1,0,0,0,.85.821.925.925,0,0,0,1.073-.424,1.734,1.734,0,0,0,.211-.942l-.286-3.97c-.128-1.784-.276-3.568-.426-5.352a9.532,9.532,0,0,0-.427-2.026A12.75,12.75,0,0,0,42.8,16.78a1.975,1.975,0,0,1-.786-1.739c.011-.2.026-3.906.037-7.238,0-.031-.01-.062-.01-.092l.005-4.7L30.92,2.978c-.013,3.949-.027,12.37-.024,12.713a1.844,1.844,0,0,1-.745,1.578,10.915,10.915,0,0,0-4.273,8.92q-.057,5.728-.136,11.453Zm8.433,5.94a4.79,4.79,0,0,1-.436.3c.208.3.415.6.624.906l.4-.582A3.687,3.687,0,0,1,34.1,49.447Zm-1.621,3.836c-.311-.439-.641-.911-1-1.438L30.32,50.171a4.018,4.018,0,0,1-2.476-2.5l-.007,0a4.082,4.082,0,0,1-3.607-.632,4.018,4.018,0,0,1-1.563-3.306q.031-3.324.08-6.647-1.21,1.762-2.422,3.523l-.073.105a1.526,1.526,0,0,1-2.117.629,1.384,1.384,0,0,1-.624-.726A1.671,1.671,0,0,1,17.6,39.26l.19-.413c.153-.329.306-.657.437-1a.993.993,0,0,0-.25-1.153.927.927,0,0,0-1.129-.241,1.733,1.733,0,0,0-.7.666l-1.974,3.46c-.888,1.555-1.758,3.122-2.628,4.688a9.546,9.546,0,0,0-.774,1.922,12.709,12.709,0,0,0,.316,7.586,1.978,1.978,0,0,1-.315,1.881c-.123.164-2.2,3.235-4.064,6-.015.027-.027.057-.044.082L3.578,67.289l9.236,6.176c2.211-3.277,7.377-10.913,7.566-11.2a1.846,1.846,0,0,1,1.5-.9A10.979,10.979,0,0,0,30.4,56.309Q31.438,54.794,32.481,53.283ZM64.506,66.492,61.93,62.7c-.017-.025-.028-.055-.043-.082-1.87-2.763-3.949-5.831-4.072-5.995a1.971,1.971,0,0,1-.317-1.88,12.712,12.712,0,0,0,.3-7.587,9.511,9.511,0,0,0-.776-1.921c-.872-1.565-1.744-3.131-2.634-4.684L52.414,37.1a1.742,1.742,0,0,0-.7-.666.866.866,0,0,0-.619-.068,3.081,3.081,0,0,1-.621.822l-.074.075c-.04.044-.094.076-.137.118a1.149,1.149,0,0,0,.074.449c.131.343.284.671.438,1l.191.413a1.667,1.667,0,0,1,.09,1.359,1.375,1.375,0,0,1-.623.727,1.527,1.527,0,0,1-2.118-.626l-.072-.106-1.353-1.961a4.456,4.456,0,0,1-.846-.132c0,1.176-.025,3.394-.137,5.423q-.135,1.5-.27,2.99c-.048.327-.1.608-.16.838a3.088,3.088,0,0,1-.364.893,3.826,3.826,0,0,1-3.731,1.846,3.6,3.6,0,0,1-1.7-.749,3.873,3.873,0,0,1-1.884,1.1l-.691,1c-.362.527-.692,1-1,1.439q1.041,1.512,2.083,3.023a10.973,10.973,0,0,0,8.53,5.044,1.851,1.851,0,0,1,1.5.9c.188.286,4.848,7.159,7.063,10.434Z"/></g></svg>