<?xml version="1.0" encoding="UTF-8" standalone="no"?><svg xmlns="http://www.w3.org/2000/svg" xmlns:xlink="http://www.w3.org/1999/xlink" contentScriptType="text/ecmascript" fill="#ffffff" width="63.3" zoomAndPan="magnify" contentStyleType="text/css" viewBox="-0.0 -0.5 63.3 79.1" height="79.1" preserveAspectRatio="xMidYMid meet" version="1"><g id="change1_1" data-name="14"><path d="M48.936,11.568a1.511,1.511,0,0,1-1.048,1.845A24.322,24.322,0,0,0,37.6,17.559a1.512,1.512,0,0,1-2.052-.538,1.539,1.539,0,0,1,.538-2.052,26.529,26.529,0,0,1,11.01-4.449A1.538,1.538,0,0,1,48.936,11.568ZM47.091,18.8a26.529,26.529,0,0,0-11.01,4.449,1.539,1.539,0,0,0-.538,2.052,1.512,1.512,0,0,0,2.052.538,24.322,24.322,0,0,1,10.293-4.146,1.511,1.511,0,0,0,1.048-1.845A1.537,1.537,0,0,0,47.091,18.8Zm0,8.28a26.527,26.527,0,0,0-11.01,4.448,1.54,1.54,0,0,0-.538,2.053,1.512,1.512,0,0,0,2.052.538,24.322,24.322,0,0,1,10.293-4.146,1.512,1.512,0,0,0,1.048-1.845A1.537,1.537,0,0,0,47.091,27.08ZM13.762,11.568a1.511,1.511,0,0,0,1.047,1.845A24.317,24.317,0,0,1,25.1,17.559a1.514,1.514,0,0,0,2.053-.538,1.541,1.541,0,0,0-.539-2.052A26.525,26.525,0,0,0,15.607,10.52,1.538,1.538,0,0,0,13.762,11.568Zm0,8.28a1.511,1.511,0,0,0,1.047,1.845A24.317,24.317,0,0,1,25.1,25.839a1.514,1.514,0,0,0,2.053-.538,1.54,1.54,0,0,0-.539-2.052A26.525,26.525,0,0,0,15.607,18.8,1.537,1.537,0,0,0,13.762,19.848Zm0,8.28a1.512,1.512,0,0,0,1.047,1.845A24.317,24.317,0,0,1,25.1,34.119a1.514,1.514,0,0,0,2.053-.538,1.542,1.542,0,0,0-.539-2.053A26.523,26.523,0,0,0,15.607,27.08,1.536,1.536,0,0,0,13.762,28.128Zm41.9,42.665a10.686,10.686,0,0,1-11.489,7.161,12.9,12.9,0,0,1-6.987-3.262c-1.328-1.087-2.587-2.285-3.8-3.443l-.109-.1c-.457-.435-.914-.87-1.376-1.3a2.949,2.949,0,0,1-.263-.281l-.656.653c-.831.83-1.616,1.615-2.443,2.392A19.819,19.819,0,0,1,21.5,77.34a11.738,11.738,0,0,1-3.852.689,10.357,10.357,0,0,1-6.421-2.3A10.423,10.423,0,0,1,7.01,66.357a10.167,10.167,0,0,1,6.3-8.961,12.069,12.069,0,0,1,4.666-1.057h.054a12.171,12.171,0,0,1,6.9,2.409,41.7,41.7,0,0,1,5.836,5.127l.591.587c.071.07.14.147.214.236l1.029-.98c1.021-.974,2.078-1.982,3.148-2.935a16.779,16.779,0,0,1,7.274-4.152A10.814,10.814,0,0,1,55.666,70.793ZM29.1,67.167a.738.738,0,0,0-.02-.116l-.027-.028a40.6,40.6,0,0,0-6.668-5.8c-3.238-2.084-6.57-2-9.383.251a7.051,7.051,0,0,0-2.666,6.246A7.4,7.4,0,0,0,17.762,74.5a7.678,7.678,0,0,0,4.187-1.166,34.138,34.138,0,0,0,6.937-5.951Zm23.75.146c-.027-.225-.043-.467-.061-.759a5.7,5.7,0,0,0-.208-1.45,7.888,7.888,0,0,0-4.332-4.8,7.241,7.241,0,0,0-6.013.2c-2.888,1.375-5.188,3.669-7.412,5.888l-.761.758c.022.021.043.041.062.057.547.508,1.074,1.017,1.583,1.509,1.149,1.112,2.336,2.26,3.582,3.249a10,10,0,0,0,6.292,2.581h.035a7.52,7.52,0,0,0,5.242-2.384A6.591,6.591,0,0,0,52.849,67.313ZM63.3,9.746v39.27a1.4,1.4,0,0,1-.569,1.164,1.71,1.71,0,0,1-1.462.24C50.387,49.985,41,52.328,33.393,57.38c-.163.109-.326.219-.487.33a2.2,2.2,0,0,1-2.5.005c-.164-.111-.331-.223-.5-.334C22.27,52.359,12.875,50.022,2,50.424A1.675,1.675,0,0,1,.568,50.18,1.4,1.4,0,0,1,0,49.016V9.746A1.4,1.4,0,0,1,.594,8.563,1.712,1.712,0,0,1,2.057,8.35a30.615,30.615,0,0,1,5.832.183V1.58A1.457,1.457,0,0,1,9.33.114,31.372,31.372,0,0,1,31.65,7.041,31.4,31.4,0,0,1,53.944.109,1.48,1.48,0,0,1,55.411,1.58V8.532a30.457,30.457,0,0,1,5.827-.18,1.721,1.721,0,0,1,1.465.21A1.4,1.4,0,0,1,63.3,9.746Zm-30.088,35.4a31.386,31.386,0,0,1,19.1-5.83V3.113a28.515,28.515,0,0,0-19.1,6.639Zm-22.229-5.83q.487-.017.974-.016a31.475,31.475,0,0,1,18.13,5.846V9.752a28.533,28.533,0,0,0-19.1-6.639ZM60.206,11.4a28.678,28.678,0,0,0-4.8.266L55.4,40.936a1.506,1.506,0,0,1-.415,1.189,1.332,1.332,0,0,1-1.11.37,28.209,28.209,0,0,0-21.1,6.92,1.8,1.8,0,0,1-2.255,0,28.233,28.233,0,0,0-21.1-6.92,1.339,1.339,0,0,1-1.108-.369A1.528,1.528,0,0,1,7.9,40.934a.35.35,0,0,1-.008-.083V11.668a28.987,28.987,0,0,0-4.795-.27V47.279c.712-.028,1.427-.043,2.127-.043A49.794,49.794,0,0,1,31.65,54.547,50.43,50.43,0,0,1,60.206,47.28Z"/></g></svg>