<?xml version="1.0" encoding="UTF-8" standalone="no"?><svg xmlns="http://www.w3.org/2000/svg" xmlns:xlink="http://www.w3.org/1999/xlink" contentScriptType="text/ecmascript" fill="#ffffff" width="70.3" zoomAndPan="magnify" contentStyleType="text/css" viewBox="-0.4 -0.1 70.3 77.2" height="77.2" preserveAspectRatio="xMidYMid meet" version="1"><g id="change1_1" data-name="28"><path d="M69.5,52.912a2.3,2.3,0,0,0-.314-.414,2.623,2.623,0,0,0-.678-.512l-.082-.048c-2.934-1.96-3.645-2.452-3.988-2.689-.323-.224-.322-.224-1.514-.992l-2.894-1.868c-1.968-1.279-2.965-2.509-3.325-4.056a2.164,2.164,0,0,0-.115-.594.56.56,0,0,0-.064-.212l-.5-1.685c-.84-2.739-2.246-7.323-2.552-8.41a7.835,7.835,0,0,0-3.348-4.525q-2.043-1.341-4.066-2.7c3.285-4.894,5.877-8.765,6.995-10.444a1.581,1.581,0,0,0,.24-.631c.314-2.444.628-4.887.919-7.341.085-.69.16-1.383.236-2.076s.151-1.381.234-2.069a1.454,1.454,0,0,0-.7-1.38,1.411,1.411,0,0,0-1.493-.09,2.21,2.21,0,0,1-.208.1c-.092.042-.185.084-.272.133q-4.824,2.708-9.628,5.431a1.44,1.44,0,0,0-.5.458l-8.647,12.9a11.359,11.359,0,0,0-1.937.7.858.858,0,0,1-.6-.036c-.576-.359-1.138-.741-1.7-1.123-.638-.434-1.3-.883-1.97-1.29a6.082,6.082,0,0,0-6.947.113,6.1,6.1,0,0,0-2.67,6.419c.017.1.033.207.049.316a6.377,6.377,0,0,0-5.2,7.777,6.4,6.4,0,0,0-5.212,7.786,6.326,6.326,0,0,0-5.247,4.959,6.4,6.4,0,0,0,2.937,6.719c.84.559,1.677,1.125,2.514,1.69q1.1.744,2.2,1.485l-.855,1.278q-2.744,4.093-5.454,8.193L.648,67.929l-.056.092a3.186,3.186,0,0,0-.342.68,4.155,4.155,0,0,0,1.487,4.81L6.142,76.46a3.846,3.846,0,0,0,2.152.649,4.273,4.273,0,0,0,.754-.068,3.474,3.474,0,0,0,2.37-1.374c.215-.308.439-.611.664-.916.291-.4.584-.794.863-1.206q3.681-5.445,7.362-10.9l.731-1.088,3.175,2.13c2.457,1.651,4.756,3.2,5.948,3.978l.119.1c.275.176.539.352.806.541a11.974,11.974,0,0,0,10.168,1.9,2,2,0,0,1,1.78.329c3.166,2.129,3.845,2.59,4.232,2.852.491.333.513.348,4.542,3.042l.17.118a3.494,3.494,0,0,0,.6.36,1.826,1.826,0,0,0,.765.168h0a1.476,1.476,0,0,0,1.354-.693l14.334-21.4C69.247,54.684,69.905,53.667,69.5,52.912ZM51.019,4.732l-.411,3.346q-.192,1.572-.388,3.151c-.016,0-.033-.007-.05-.012q-.27-.084-.536-.182l-.213-.08-.158-.063c-.1-.042-.07-.028.1.041-.1.021-.367-.168-.463-.214-.169-.084-.337-.171-.5-.262q-.5-.275-.965-.6c-.109-.075-.352-.182-.415-.3.138.108.165.129.079.061-.03-.023-.059-.047-.088-.071q-.111-.089-.219-.18-.432-.367-.828-.775-.2-.2-.383-.417c-.06-.068-.155-.155-.235-.244q1.639-.929,3.283-1.855Zm-7.742,5.331a13.128,13.128,0,0,0,5.7,3.908c-1.246,1.859-3.245,4.847-5.627,8.416q-.549-.366-1.1-.735c-.49-.329-.979-.658-1.472-.984a10.309,10.309,0,0,0-3.575-1.559C39.752,15.324,41.878,12.151,43.277,10.063ZM21.4,20.755l0,0a2.929,2.929,0,0,1,2.209-1.008,2.671,2.671,0,0,1,1.3.33,29.19,29.19,0,0,1,2.529,1.645c.283.2.567.4.854.593L24.95,27.3c-.37-.251-.75-.483-1.121-.71a9.267,9.267,0,0,1-2.7-2.141A2.858,2.858,0,0,1,21.4,20.755Zm-5.523,8.2A3.028,3.028,0,0,1,18.4,27.522a2.608,2.608,0,0,1,1.31.348c1.1.636,2.17,1.38,3.2,2.1l.363.252a.5.5,0,0,1,.1.278,8.453,8.453,0,0,0,.3,3.233A4.887,4.887,0,0,0,25.3,36.148a7.766,7.766,0,0,0,3.225,1.464,3.086,3.086,0,0,1-1.684,1.121,2.581,2.581,0,0,1-2.039-.31l-.187-.12c-.162-.1-.326-.21-.5-.33-.7-.446-1.406-.9-2.1-1.375-1.613-1.06-3.373-2.254-5.538-3.76A2.892,2.892,0,0,1,15.875,28.957ZM10.716,36.65a2.888,2.888,0,0,1,2.427-1.336,3.478,3.478,0,0,1,1.9.6c.9.59,1.79,1.192,2.684,1.8l2.457,1.643c.694.458,1.4.927,2.074,1.393l.253.172a3.066,3.066,0,0,1,1.007,4.291,2.939,2.939,0,0,1-1.879,1.276,3.231,3.231,0,0,1-2.44-.508l-1.016-.671c-.456-.3-.912-.6-1.372-.91-1.735-1.141-3.447-2.294-5.16-3.47A3,3,0,0,1,10.716,36.65ZM6.448,48.679h0a3.223,3.223,0,0,1-1.422-2.031,2.969,2.969,0,0,1,.492-2.231,2.88,2.88,0,0,1,2.407-1.323,3.366,3.366,0,0,1,1.83.576c.881.569,1.747,1.155,2.615,1.742l2.591,1.74c.693.458,1.4.927,2.076,1.395l.327.225a3,3,0,0,1,.942,4.213,2.913,2.913,0,0,1-1.853,1.275,3.321,3.321,0,0,1-2.523-.574c-.067-.044-.13-.086-.23-.161-.509-.323-1.012-.658-1.514-.992l-.618-.411Q9,50.4,6.448,48.679Zm5.064,21.246-.179.255c-.767,1.11-1.533,2.22-2.3,3.313a.771.771,0,0,1-.891.281.926.926,0,0,1-.325-.146L6.246,72.579c-.852-.573-1.7-1.145-2.557-1.707a.886.886,0,0,1-.24-1.244c.817-1.272,1.634-2.543,2.45-3.824,1.315.88,2.611,1.753,3.911,2.628l1.869,1.257Zm9.1-13.6c-.212.322-.434.645-.661.974-.288.439-.58.873-.871,1.306l-5.533,8.228c-1.9-1.3-3.793-2.6-5.7-3.9.357-.525.74-1.094,1.123-1.664.705-1.047,1.807-2.693,3.2-4.776a7.124,7.124,0,0,0,2.462,1.046,7.55,7.55,0,0,0,3.836-.3l.2-.09a2.118,2.118,0,0,0,.357-.206l.562-.378-.088-.064a6.573,6.573,0,0,0,2.486-6.662,6.7,6.7,0,0,0,4.279-2.774,6.838,6.838,0,0,0,.924-5.032,5.978,5.978,0,0,0,4.806-3.824A5.233,5.233,0,0,1,33.6,35.839a7.324,7.324,0,0,0,1.087-1.279c.08-.111.16-.222.243-.331l.32.26-9.3,13.874Zm32.4,16.907c-.292-.194-.425-.286-.471-.32-1.08-.721-1.866-1.238-2.546-1.685-1.443-.949-2.4-1.576-4.662-3.172a6.124,6.124,0,0,0-3.592-1.24,6.38,6.38,0,0,0-1.627.221,8.2,8.2,0,0,1-6.88-1.307c-.246-.161-.488-.326-.73-.49-.365-.246-.727-.492-1.05-.689l-.167-.119c-1.953-1.306-5.623-3.767-8.394-5.628L34.459,41.514a9.8,9.8,0,0,0,1.989,7.672,19.433,19.433,0,0,0,3.265,3.063c.364.292.728.584,1.081.881a1.789,1.789,0,0,0,1.4.478,1.592,1.592,0,0,0,1.09-.7,1.678,1.678,0,0,0-.537-2.441l-2.186-1.67a7.241,7.241,0,0,1-2.433-8.236,16.875,16.875,0,0,1,1.58-2.83c.191-.3.381-.59.563-.884.861-1.376.749-2.055-.5-3.023l-.376-.3c-.561-.438-1.122-.883-1.677-1.323l-.3-.242c-.228-.166-.448-.34-.688-.531.355-1.135.107-1.915-.738-2.317a1.79,1.79,0,0,0-2.3.914l-.675,1.006c-.443.663-.886,1.327-1.34,1.982a2.7,2.7,0,0,1-3.894.855,3.1,3.1,0,0,1-.507-.438A2.686,2.686,0,0,1,27.154,30q1.678-2.535,3.393-5.051a5.782,5.782,0,0,1,4.392-2.692A6.038,6.038,0,0,1,38.745,23.3l.443.293c.879.582,1.751,1.161,2.627,1.757.694.459,1.4.928,2.093,1.4l4.606,3.092a4.089,4.089,0,0,1,1.7,2.282c.444,1.5,2.694,8.869,3.181,10.461l.028.088c.1.332.2.663.3.994.144.464.289.929.418,1.4a4.449,4.449,0,0,0,1.937,2.625c2.532,1.67,3.789,2.514,5.43,3.615l3.437,2.3.106.074h0l.036.022c.022.015.043.029.06.039l.006.181h.263l.1.072c.069.041.154.1.256.166Z"/></g></svg>