<?xml version="1.0" encoding="UTF-8" standalone="no"?><svg xmlns="http://www.w3.org/2000/svg" xmlns:xlink="http://www.w3.org/1999/xlink" contentScriptType="text/ecmascript" fill="#ffffff" width="75.3" zoomAndPan="magnify" contentStyleType="text/css" viewBox="-1.1 -1.3 75.3 68.9" height="68.9" preserveAspectRatio="xMidYMid meet" version="1"><g id="change1_1" data-name="9"><path d="M73.974,19.558A22.3,22.3,0,0,0,43.657,1.7a22.6,22.6,0,0,0-6.495,4.006c-.178-.141-.331-.258-.48-.378C30.147.038,22.842-1.329,14.886,1.3A22.226,22.226,0,0,0,6.192,37.643a1.01,1.01,0,0,1,.227.849,21.5,21.5,0,0,0-.965,10.76,1.3,1.3,0,0,1-.27.888c-.536.682-1.142,1.308-1.71,1.964a2.848,2.848,0,0,0,.235,4.241q5.865,5.222,11.76,10.409a2.849,2.849,0,0,0,4.242-.27c.747-.821,1.492-1.645,2.2-2.5a1.374,1.374,0,0,1,1.161-.552A17.467,17.467,0,0,0,29.765,62.1a.842.842,0,0,1,1.115.2c1.079,1.138,2.205,2.231,3.317,3.336,1.881,1.869,4.021,1.86,5.909-.026Q45.4,60.324,50.684,55.033c.05-.044.1-.09.149-.139,2.345-2.364,14.5-14.489,16.84-16.853a21.627,21.627,0,0,0,5.792-10.259c.3-1.212.457-2.457.679-3.687V20.621C74.087,20.267,74.018,19.914,73.974,19.558ZM22.161,60.52a1.981,1.981,0,0,0-1.706.741c-.967,1.137-1.973,2.24-2.991,3.389L5.569,54.12c.786-.892,1.527-1.772,2.311-2.611a2.1,2.1,0,0,0,.577-1.97A17.912,17.912,0,0,1,9.343,39.1a13.209,13.209,0,0,1,1.4-2.518q3.672-5.065,7.444-10.058a2.888,2.888,0,0,1,1.293-.955,1.784,1.784,0,0,1,2.058.686,1.886,1.886,0,0,1,.191,2.171c-.329.616-.717,1.2-1.073,1.8a1.476,1.476,0,0,0,.226,2.126,1.5,1.5,0,0,0,2.158-.407q5.642-6.36,11.271-12.731a2.033,2.033,0,0,1,2.013-.861,1.873,1.873,0,0,1,.959,3.167c-1.755,2.022-3.543,4.015-5.317,6.019-1.583,1.788-3.172,3.57-4.748,5.364a1.481,1.481,0,0,0-.247,1.856,1.317,1.317,0,0,0,1.566.605,2.187,2.187,0,0,0,.925-.64c4.106-4.612,5.565-6.606,9.659-11.228.16-.18.314-.367.486-.536a1.913,1.913,0,0,1,2.676-.077,1.859,1.859,0,0,1,.26,2.657c-.905,1.1-1.87,2.144-2.813,3.21-3.309,3.739-3.994,4.839-7.284,8.594a1.8,1.8,0,0,0-.528,1.191,2.149,2.149,0,0,0,.776,1.259,1.173,1.173,0,0,0,1.531-.17,10.379,10.379,0,0,0,.89-.948q4.655-5.253,9.3-10.512a2.016,2.016,0,0,1,2.088-.832,1.926,1.926,0,0,1,.91,3.26c-1.569,1.8-3.165,3.576-4.747,5.364-1.775,2-3.554,4.005-5.316,6.02a1.426,1.426,0,0,0,.077,2.119,1.442,1.442,0,0,0,2.067-.19c.1-.1.2-.213.292-.321l7.193-8.127c.08-.09.159-.182.239-.272.974-1.091,2.06-1.268,2.952-.481s.84,1.885-.138,2.989q-7.677,8.665-15.347,17.337A15.3,15.3,0,0,1,22.161,60.52ZM70.625,27.252a19.389,19.389,0,0,1-5.156,8.9C63.26,38.363,52.185,49.43,49.129,52.5c-.108.1-.212.207-.316.311Q44.717,56.9,40.623,61c-.9.9-1.811,1.806-2.711,2.713-.41.413-.9.587-1.341.163-1.179-1.134-2.31-2.318-3.367-3.389,1.32-1.293,2.681-2.516,3.914-3.856,2.156-2.343,4.234-4.757,6.345-7.141q4.486-5.067,8.97-10.135a4.748,4.748,0,0,0-1.594-7.621c-.147-.069-.292-.144-.488-.241a4.792,4.792,0,0,0-.409-5.175,5.039,5.039,0,0,0-4.255-1.776,4.31,4.31,0,0,0-1.342-4.153,4.5,4.5,0,0,0-3.859-.923,4.332,4.332,0,0,0-1.006-2.516A4.586,4.586,0,0,0,34.7,15.732a3.837,3.837,0,0,0-1.011.515c-2.475,1.748-7.9,8-9.051,9.342a5.373,5.373,0,0,0-5.32-2.927c-.4.05-1.985-.142-3.652,2.317-2.015,2.971-4.243,5.8-6.377,8.689-.4.54-.8,1.078-1.286,1.73-.173-.23-.3-.406-.433-.572A18.76,18.76,0,0,1,3.594,17.281,19.314,19.314,0,0,1,35.752,8.4c1.1,1.051,1.669,1.044,2.76.025a18.883,18.883,0,0,1,16.01-5.19A19.316,19.316,0,0,1,70.625,27.252Z"/></g></svg>