<?xml version="1.0" encoding="UTF-8" standalone="no"?><svg xmlns="http://www.w3.org/2000/svg" xmlns:xlink="http://www.w3.org/1999/xlink" contentScriptType="text/ecmascript" fill="#ffffff" width="81.6" zoomAndPan="magnify" contentStyleType="text/css" viewBox="-0.6 -1.7 81.6 68.3" height="68.3" preserveAspectRatio="xMidYMid meet" version="1"><g id="change1_1" data-name="34"><path d="M76.314,11.705a23.891,23.891,0,0,0-8.981-8.73A22.629,22.629,0,0,0,61.959.907a23.619,23.619,0,0,0-21.517,4.85c-.094.076-.2.146-.3.216a.866.866,0,0,1-.136.048C32.519,0,24.142-1.742,15.133,1.871a25.213,25.213,0,0,0-9.262,6.37c-6.423,7.233-5.955,16.4-5.8,18.5a26.343,26.343,0,0,0,2.412,7.953A26.413,26.413,0,0,0,7.5,41.542a1.884,1.884,0,0,1,.522.812,5.863,5.863,0,0,0,5.665,4.954,3.009,3.009,0,0,1,.321.071c.321,3.683,2.314,5.756,6.142,6.089.043.308.094.629.134.951a5.651,5.651,0,0,0,5.061,5.008c.741.076,1,.3,1.081,1.086a5.412,5.412,0,0,0,3.7,4.717A5.693,5.693,0,0,0,36.4,63.867c.7-.674,1.333-1.421,2.248-2.4,1.063,1.181,1.954,2.267,2.946,3.249a5.561,5.561,0,0,0,4.687,1.635,5.8,5.8,0,0,0,5.171-4.932c.056-.359.1-.721.129-.94a20.237,20.237,0,0,0,3.1-1.022,5.481,5.481,0,0,0,3.011-4.633.956.956,0,0,1,.567-.69c3.559-.6,5.064-2.126,5.585-5.744a1.7,1.7,0,0,1,.088-.276,8.684,8.684,0,0,0,1.952-.417l.168-.076a6.416,6.416,0,0,0,1.1-.533c.06-.032.114-.068.173-.1s.119-.063.174-.1c.035-.025.067-.054.1-.079a3.207,3.207,0,0,0,.345-.269,5.981,5.981,0,0,0,.955-.913,7.323,7.323,0,0,0,.728-1.107c1.178-1.323,2.489-2.512,3.7-3.8a21.973,21.973,0,0,0,4.163-5.882A26.343,26.343,0,0,0,79.9,27.255C81.017,19.622,76.621,12.21,76.314,11.705Zm-60.665,31.8a2.687,2.687,0,0,1-3.739-.089,2.649,2.649,0,0,1-.111-3.789,34.663,34.663,0,0,1,2.921-2.905,7.11,7.11,0,0,1,1.673-.827,3,3,0,0,1,2.643,1.732,2.472,2.472,0,0,1-.41,2.9A41.434,41.434,0,0,1,15.649,43.507Zm6.1,6.128a2.571,2.571,0,0,1-2.992.383c-1.044-.488-1.522-1.362-1.561-2.865a5.836,5.836,0,0,1,.759-1.441,36.545,36.545,0,0,1,2.762-2.805,2.8,2.8,0,0,1,3.828-.042,2.673,2.673,0,0,1,.127,3.868A41.039,41.039,0,0,1,21.749,49.635Zm6.336,5.935a2.782,2.782,0,0,1-3.959.044,2.752,2.752,0,0,1,.059-3.947c.867-.9,1.743-1.8,2.663-2.648a2.621,2.621,0,0,1,3.046-.547c1.093.494,1.57,1.392,1.678,2.891a7.889,7.889,0,0,1-.9,1.609A34.22,34.22,0,0,1,28.085,55.57Zm8.809,3.405a35.68,35.68,0,0,1-2.8,2.767,6.374,6.374,0,0,1-1.531.8,2.884,2.884,0,0,1-2.8-1.527,2.445,2.445,0,0,1,.234-2.843,31.646,31.646,0,0,1,3.229-3.239,2.629,2.629,0,0,1,3.713.3A2.726,2.726,0,0,1,36.894,58.975ZM66.019,44.137a2.725,2.725,0,0,1-.918.6l-.078.028a3.027,3.027,0,0,1-3.157-.922Q55.908,37.93,49.972,31.994c-.13-.13-.25-.271-.388-.39a1.621,1.621,0,0,0-2.312-.022,1.556,1.556,0,0,0,.138,2.23c1.082,1.123,2.206,2.206,3.309,3.308,3.073,3.069,6.155,6.129,9.211,9.215a2.742,2.742,0,0,1,.451,3.3,2.653,2.653,0,0,1-2.98,1.294,3.609,3.609,0,0,1-1.545-.9c-4.011-3.948-7.989-7.929-11.977-11.9a6.162,6.162,0,0,0-.533-.5,1.553,1.553,0,0,0-2.162.034A1.464,1.464,0,0,0,41.2,39.8c1.306,1.375,2.666,2.7,4.007,4.038,2.815,2.81,5.639,5.61,8.443,8.43a2.824,2.824,0,0,1,.312,3.892,2.749,2.749,0,0,1-4.076.148c-2-1.936-3.951-3.923-5.931-5.879-.848-.838-1.716-1.655-2.581-2.475a3.246,3.246,0,0,0-.367-.3l-4.8-4.8a1.5,1.5,0,1,0-2.122,2.121l4.774,4.774a2.807,2.807,0,0,0,.329.4c2.744,2.75,5.5,5.484,8.249,8.233a2.764,2.764,0,0,1-.075,4.324,2.634,2.634,0,0,1-3.313.033c-1.167-1.031-2.253-2.156-3.342-3.272a.89.89,0,0,1-.163-.733,5.9,5.9,0,0,0-5.51-7.516,1.984,1.984,0,0,1-.327-.077c-.3-3.7-2.34-5.739-6.115-6.081-.329-3.709-2.334-5.769-6.013-6.092a15.814,15.814,0,0,0-.749-2.616,5.807,5.807,0,0,0-9.315-1.844c-1.3,1.155-2.575,2.348-3.961,3.615a19.752,19.752,0,0,1-5.307-15.96C4.252,13.189,9.2,7.1,17.729,4.2A20.245,20.245,0,0,1,37.708,8.346c-2.431,2.426-4.815,4.8-7.188,7.178-.949.952-1.931,1.882-2.795,2.908a6.6,6.6,0,0,0,.487,8.922,6.679,6.679,0,0,0,8.946.362c1.1-.961,5.489-5.267,8.323-8.022,5.728,5.7,15.862,15.812,20.35,20.305A2.74,2.74,0,0,1,66.019,44.137ZM76.9,25.513a22.3,22.3,0,0,1-3.315,9.8,27.533,27.533,0,0,1-1.774,2.4c-.632.764-1.279,1.5-1.862,2.233-.861-.9-1.683-1.768-2.491-2.617,0,0-1.157-1.2-2.414-2.49-1.806-1.848-9.31-9.347-19.57-19.507-1.955,1.965-8.754,8.586-10.1,9.853a3.529,3.529,0,0,1-4.55.3,3.568,3.568,0,0,1-.364-5.529c2.886-2.91,5.816-5.777,8.7-8.684a27.858,27.858,0,0,1,6.564-5.4A21.888,21.888,0,0,1,55.707,3.2a25.123,25.123,0,0,1,9.927,2.355,16.166,16.166,0,0,1,3.23,1.939,19.117,19.117,0,0,1,2.148,1.987,18.04,18.04,0,0,1,1.832,2.24,24.933,24.933,0,0,1,1.655,2.82A20.549,20.549,0,0,1,76.9,25.513Z"/></g></svg>