<?xml version="1.0" encoding="UTF-8" standalone="no"?><svg xmlns="http://www.w3.org/2000/svg" xmlns:xlink="http://www.w3.org/1999/xlink" contentScriptType="text/ecmascript" fill="#ffffff" width="74.5" zoomAndPan="magnify" contentStyleType="text/css" viewBox="-0.2 -0.1 74.5 77.7" height="77.7" preserveAspectRatio="xMidYMid meet" version="1"><g id="change1_1" data-name="31"><path d="M31.9,12.57H48.677a1.451,1.451,0,0,1,0,2.9H31.9A1.451,1.451,0,0,1,31.9,12.57Zm33.467,7.78H31.784a1.451,1.451,0,0,0,0,2.9H65.368A1.451,1.451,0,0,0,65.368,20.35Zm6.194.516c0-.88.01-1.77.01-2.659h-.019C71.553,19.1,71.562,19.977,71.562,20.866Zm2.673-2.3v4.574c.01,1.944.01,3.907-.01,5.851-.038,4.525-2.833,7.736-7.068,8.316a30.132,30.132,0,0,1-2.167,9.07l-.338.822c-1.3,3.23-2.669,6.566-3.916,9.873-1.954,5.144-2.553,9.428-1.9,13.5a28.806,28.806,0,0,0,.9,3.607c.116.4.232.793.338,1.18a1.316,1.316,0,0,1-.734,1.8,2.261,2.261,0,0,1-.406.1,1.383,1.383,0,0,1-.716.184H28.805A3,3,0,0,1,26.2,76.9a7.111,7.111,0,0,1-1.364-2.689c-.077-.2-.135-.357-.174-.464a20.088,20.088,0,0,1-9.8,1.044A12.9,12.9,0,0,1,9.737,73.3a6.252,6.252,0,0,1-2.631-4.216,53.967,53.967,0,0,1-.232-5.434,10.489,10.489,0,0,0-2.1-5.27,1.473,1.473,0,0,1-.213-.455c-.058-.068-.116-.145-.174-.213a1.421,1.421,0,0,1-.193-.735V55.858a.533.533,0,0,1,.019-.213,2.713,2.713,0,0,1-.387-1.45,3.105,3.105,0,0,0-1.654-2.979A4.068,4.068,0,0,1,.463,45.7a14.464,14.464,0,0,1,2.021-3.182,13.959,13.959,0,0,0,3.094-6.7c.242-1.547.339-3.143.436-4.69.067-1.064.135-2.156.251-3.239C7.29,18.251,12.173,11.483,20.78,7.75c.822-.358,1.673-.7,2.553-1A9.174,9.174,0,0,1,30.324.11Q38.012.1,45.689.062C48.842-.044,62.7.014,65.851.033a8.039,8.039,0,0,1,8.374,8.4C74.245,10.38,74.245,16.627,74.235,18.57ZM64.449,37.407c-4.032.02-11.73.059-14.611-.048a5.234,5.234,0,0,0-2.263.416c-.358.145-1.054.474-3.7,3.239-.58.6-.638.677-1.866,1.973-1.45,1.547-2.62,2.746-5.019,5.1-.764.745-1.74,1.692-2.881,2.775-.058-2.369-.126-4.738-.184-7.1V37.4H31.687a9.544,9.544,0,0,1-4.061-.938,7.25,7.25,0,0,1-3.268-2.524,6.512,6.512,0,0,1-1.035-2.872V9.587q-2,.826-4,1.886a18.546,18.546,0,0,0-9.6,12.561A39.643,39.643,0,0,0,8.75,31.9,20.621,20.621,0,0,1,4.235,44.66a11.014,11.014,0,0,0-1.171,1.7c-.667,1.267-.474,1.982.735,2.727a5.112,5.112,0,0,1,2.669,4.564.8.8,0,0,0,.165.609.833.833,0,0,0,.638.155c1.363-.029,2.785-.029,4.216,0a1.533,1.533,0,0,1,1.131.425,1.273,1.273,0,0,1,.319.987c-.029.8-.551,1.257-1.469,1.257H10.143c-.9.01-1.828.01-2.746-.01A14.39,14.39,0,0,1,9.8,65.818c-.009,1.431-.1,3.084.764,4.332s2.8,1.479,4.207,1.712c5.918,1.005,12.58-.9,15.22-6.711.774-1.7,3.269-.223,2.5,1.46a13.339,13.339,0,0,1-5.387,5.947c.329.7.619,1.373.861,1.982H56.936a25.315,25.315,0,0,1,.434-15.762c1.432-4.177,3.076-8.365,4.671-12.407l.619-1.566A27.614,27.614,0,0,0,64.449,37.407Zm7.117-16.545c0-.88.01-1.769.01-2.659,0-1.828,0-7.949-.02-9.767a5.749,5.749,0,0,0-1.547-4.158A6.386,6.386,0,0,0,65.832,2.7c-2.369-.213-11.71-.2-18.451.116-5.25.252-10.52,0-15.781.029a5.345,5.345,0,0,0-4.951,2.882A6.447,6.447,0,0,0,26,8.591V8.61c-.029,5.387-.029,15.057,0,20.423a5.415,5.415,0,0,0,5.628,5.7c1,.019,2,.039,3,0a1.973,1.973,0,0,1,1.47.4,2.148,2.148,0,0,1,.5,1.625c-.049,3.887-.155,7.446-.184,8.2a37.3,37.3,0,0,0,4.757-4.767C42.45,38.645,44,37.359,45.39,35.928a3.645,3.645,0,0,1,2.92-1.218c3.413.058,11.875.048,16.265.029.473,0,.889-.01,1.257-.01a7.459,7.459,0,0,0,1.431-.155C69.922,34.042,71.537,32,71.556,29c.02-1.828.02-3.646.02-5.473C71.576,22.632,71.566,21.752,71.566,20.862Zm.006,2.663c0-.889-.01-1.769-.01-2.659,0,.89-.009,1.77-.009,2.659Z"/></g></svg>