<?xml version="1.0" encoding="UTF-8" standalone="no"?><svg xmlns="http://www.w3.org/2000/svg" xmlns:xlink="http://www.w3.org/1999/xlink" contentScriptType="text/ecmascript" fill="#ffffff" width="73" zoomAndPan="magnify" contentStyleType="text/css" viewBox="-0.3 0.0 73.0 66.7" height="66.7" preserveAspectRatio="xMidYMid meet" version="1"><g id="change1_1" data-name="35"><path d="M72.537,64.816V51.967a7.418,7.418,0,0,0-7.648-7.655q-4.174,0-8.35,0c-.468,0-.938,0-1.405.039a7.435,7.435,0,0,0-3.747,1.42c0-1.075,0-2.04,0-3A9.089,9.089,0,0,0,42.4,33.755q-6.149-.014-12.3.006a8.969,8.969,0,0,0-8.724,7.26,32.42,32.42,0,0,0-.21,4.2c-.006.154,0,.309,0,.521-.147-.081-.215-.111-.276-.152a7.574,7.574,0,0,0-4.367-1.285c-3.071.015-6.143-.026-9.213.019A7.266,7.266,0,0,0,1.413,47.4C-.311,49.655.022,62.406.033,65.008H.166A1.439,1.439,0,0,0,1.6,66.714H71.14A1.462,1.462,0,0,0,72.537,64.816ZM24.186,42.877a6.033,6.033,0,0,1,6.108-6.105q5.6-.014,11.209,0a10.7,10.7,0,0,1,2.119.152A5.972,5.972,0,0,1,48.345,42.9c.011,3.586,0,16.345,0,20.814H24.183C24.182,59.058,24.175,46.48,24.186,42.877ZM3.035,63.714c0-3.218,0-11.061,0-11.9a4.333,4.333,0,0,1,4.395-4.465c3.115-.034,6.232-.011,9.348,0a4.362,4.362,0,0,1,4.381,4.334c.007.879,0,8.789,0,12.03Zm48.347,0c0-3.208,0-11.053,0-11.883a4.359,4.359,0,0,1,4.465-4.489q4.629-.021,9.258.007a4.337,4.337,0,0,1,4.4,4.411c.007.754,0,9.254,0,11.954ZM15.624,19.678a1.476,1.476,0,0,1,1.516-1.522q2.289-.027,4.577,0a1.5,1.5,0,0,1-.015,3.005c-.77.017-1.541,0-2.311,0v0c-.741,0-1.481.006-2.221,0A1.477,1.477,0,0,1,15.624,19.678Zm20.507,11.04a9.063,9.063,0,1,0-8.921-9.074A9.164,9.164,0,0,0,36.131,30.718Zm.3-15.1a6.041,6.041,0,1,1-6.183,6.044A6.034,6.034,0,0,1,36.427,15.621ZM21.267,7.762a1.448,1.448,0,0,1,.121-2.014,1.472,1.472,0,0,1,2.054-.041C24.58,6.814,25.706,7.936,26.8,9.084a3.568,3.568,0,0,1,.472.942,1.7,1.7,0,0,1-.975,1.408,1.343,1.343,0,0,1-1.57-.205C23.552,10.1,22.392,8.945,21.267,7.762ZM12.12,41.3a7.556,7.556,0,1,0-7.566-7.514A7.572,7.572,0,0,0,12.12,41.3Zm.024-12.079A4.525,4.525,0,1,1,7.567,33.7,4.5,4.5,0,0,1,12.144,29.223ZM52.89,33.685a7.558,7.558,0,1,0,7.591-7.5A7.587,7.587,0,0,0,52.89,33.685Zm7.539-4.458a4.525,4.525,0,1,1-4.508,4.523A4.5,4.5,0,0,1,60.429,29.227Zm-9.568-11.07c.771-.014,1.542,0,2.312,0v0c.726,0,1.451,0,2.177,0a1.506,1.506,0,1,1,.037,3.01q-2.267.028-4.534,0a1.518,1.518,0,0,1-1.522-1.534A1.5,1.5,0,0,1,50.861,18.157ZM34.771,6.03c-.008-.755,0-1.511,0-2.266h.005c0-.756-.011-1.512,0-2.267a1.5,1.5,0,0,1,3,0q.024,2.289,0,4.579a1.5,1.5,0,1,1-3.007-.042ZM45.5,10.7a1.427,1.427,0,0,1,.285-1.677c.767-.794,1.555-1.566,2.336-2.347.309-.31.614-.626.934-.925a1.5,1.5,0,0,1,2.143,2.1c-1.085,1.117-2.183,2.223-3.309,3.3a2.785,2.785,0,0,1-.813.426A1.546,1.546,0,0,1,45.5,10.7Z"/></g></svg>