<?xml version="1.0" encoding="UTF-8" standalone="no"?><svg xmlns="http://www.w3.org/2000/svg" xmlns:xlink="http://www.w3.org/1999/xlink" contentScriptType="text/ecmascript" fill="#ffffff" width="51.9" zoomAndPan="magnify" contentStyleType="text/css" viewBox="-0.0 0.0 51.9 76.9" height="76.9" preserveAspectRatio="xMidYMid meet" version="1"><g id="change1_1" data-name="40"><path d="M50.645,48.711a4.174,4.174,0,0,0-2.392-1.19,2.547,2.547,0,0,0-.089-.3,4.049,4.049,0,0,0-1.035-1.671l-.095-.1A4.217,4.217,0,0,0,44.392,44.3l-.285-.01a4.173,4.173,0,0,0-3,1.24l-8.94,8.97-16.222.036-.1-.015a4.166,4.166,0,0,0-1.79.263A4.345,4.345,0,0,0,12.6,55.7L3.383,64.939a1.372,1.372,0,0,0-.41,1.016l.009,9.5a1.4,1.4,0,0,0,1.4,1.4l8.369-.019a1.424,1.424,0,0,0,1.012-.427L15.7,74.372l19-4.808a6.782,6.782,0,0,0,2.048-1.111A16.482,16.482,0,0,0,38.5,66.89L50.654,54.718a4.247,4.247,0,0,0,1.228-3v-.288A4.235,4.235,0,0,0,50.645,48.711Zm-6.013,0L36.573,56.8a4.471,4.471,0,0,0-.782-1.078,5.363,5.363,0,0,0-.481-.4l7.783-7.813a1.493,1.493,0,0,1,1.1-.42,1.438,1.438,0,0,1,.952.42,1.5,1.5,0,0,1,.355.543A4.524,4.524,0,0,0,44.632,48.71ZM34.242,58.734a1.413,1.413,0,0,1-.434,1.029,1.378,1.378,0,0,1-1.011.426L21,60.2a1.407,1.407,0,0,0-1.4,1.411,1.424,1.424,0,0,0,.433,1A1.473,1.473,0,0,0,21,63l11.8-.011a4.181,4.181,0,0,0,3-1.243,3.811,3.811,0,0,0,.642-.851L46.617,50.7a1.462,1.462,0,0,1,1.094-.427,1.414,1.414,0,0,1,.951.421,1.466,1.466,0,0,1,.431.935v.09a1.473,1.473,0,0,1-.421,1.025L36.5,64.932a12.308,12.308,0,0,1-1.432,1.3,3.888,3.888,0,0,1-1.123.644l-19.3,4.889a1.335,1.335,0,0,0-.7.416L12.147,74.05H5.782l-.01-7.531,8.782-8.811a1.6,1.6,0,0,1,.48-.311,1.657,1.657,0,0,1,.664-.078l17.1-.029a1.438,1.438,0,0,1,.945.351l.07.068a1.446,1.446,0,0,1,.43.916ZM48.9,1.484h-.375l.375-.08A1.4,1.4,0,0,0,47.505,0L39.136.02a1.421,1.421,0,0,0-1.012.426L36.178,2.488l-19,4.807a6.793,6.793,0,0,0-2.048,1.111A16.5,16.5,0,0,0,13.38,9.97L1.229,22.142a4.25,4.25,0,0,0-1.229,3v.288a4.232,4.232,0,0,0,1.237,2.715,4.168,4.168,0,0,0,2.392,1.19,2.493,2.493,0,0,0,.089.3,4.036,4.036,0,0,0,1.035,1.671l.1.105a4.209,4.209,0,0,0,2.642,1.141l.284.011a4.175,4.175,0,0,0,3-1.24l8.941-8.971,16.222-.036.094.016a4.177,4.177,0,0,0,1.79-.264,4.333,4.333,0,0,0,1.463-.916L48.5,11.92a1.374,1.374,0,0,0,.41-1.016ZM7.251,28.149l8.059-8.087a4.461,4.461,0,0,0,.782,1.079,5.54,5.54,0,0,0,.481.4L8.79,29.35a1.485,1.485,0,0,1-1.1.42,1.437,1.437,0,0,1-.951-.42,1.491,1.491,0,0,1-.355-.542A4.6,4.6,0,0,0,7.251,28.149Zm10.39-10.024a1.415,1.415,0,0,1,.434-1.029,1.376,1.376,0,0,1,1.01-.426l11.8-.01a1.4,1.4,0,0,0,.97-2.413,1.447,1.447,0,0,0-.97-.387l-11.8.01a4.177,4.177,0,0,0-3,1.243,3.755,3.755,0,0,0-.642.851L5.266,26.164a1.462,1.462,0,0,1-1.094.426,1.407,1.407,0,0,1-.951-.421,1.491,1.491,0,0,1-.431-1.024,1.465,1.465,0,0,1,.421-1.025L15.383,11.928a12.4,12.4,0,0,1,1.429-1.3,3.912,3.912,0,0,1,1.126-.644L37.242,5.1a1.349,1.349,0,0,0,.705-.416L39.735,2.81H46.1l.009,7.53-8.787,8.816a1.547,1.547,0,0,1-.474.306,1.6,1.6,0,0,1-.664.078l-17.1.03a1.454,1.454,0,0,1-.944-.349l-.07-.071a1.438,1.438,0,0,1-.43-.915ZM35.6,35.866a1.8,1.8,0,0,0-1.31-.9,38.5,38.5,0,0,0-4.32-.63,1.738,1.738,0,0,1-1.58-1.22l-.04-.09c-.55-1.2-1.12-2.45-1.77-3.63a1.814,1.814,0,0,0-1.28-.94,1.859,1.859,0,0,0-1.29.94c-.36.66-.69,1.34-1.02,2.01-.34.71-.7,1.44-1.09,2.13a1.668,1.668,0,0,1-1,.71c-.77.15-1.58.26-2.35.37-.74.1-1.5.21-2.25.35a1.8,1.8,0,0,0-1.29.93,1.858,1.858,0,0,0,.52,1.51c1.06,1.13,2.13,2.18,3.2,3.12a1.4,1.4,0,0,1,.49,1.53c-.34,1.71-.56,3.04-.71,4.3-.06.47.01,1.33.44,1.61a1.982,1.982,0,0,0,1.7-.08c1.21-.56,2.47-1.22,3.95-2.08a1.27,1.27,0,0,1,1.41.01c1.11.62,2.24,1.21,3.34,1.78l.51.26a5.224,5.224,0,0,0,.67.29c.08.03.15.06.22.08l.05.03.06-.01a1.431,1.431,0,0,0,1.1-.49,1.5,1.5,0,0,0,.21-1.23c-.08-.51-.17-1.01-.26-1.52-.19-1.04-.38-2.11-.5-3.17a1.647,1.647,0,0,1,.39-1.17c.54-.58,1.13-1.15,1.69-1.7.54-.51,1.09-1.04,1.6-1.59A1.809,1.809,0,0,0,35.6,35.866Zm-4.3,1.76a20.982,20.982,0,0,1-1.66,1.52,2.431,2.431,0,0,0-.87,2.77c.16.66.27,1.33.39,2.1.04.21.07.43.11.66-.23-.12-.46-.24-.69-.35-.77-.4-1.51-.78-2.21-1.17a2.093,2.093,0,0,0-1.08-.32,2.072,2.072,0,0,0-1.05.31c-.71.41-1.45.79-2.23,1.19-.22.1-.43.21-.65.33.03-.24.07-.48.11-.71.16-.94.32-1.84.4-2.73a2.045,2.045,0,0,0-.44-1.48c-.63-.68-1.3-1.29-2.07-2-.2-.19-.4-.37-.61-.57.3-.05.58-.1.86-.14.94-.16,1.74-.29,2.56-.38a1.993,1.993,0,0,0,1.71-1.27c.35-.75.72-1.5,1.12-2.3l.3-.61c.11.22.22.43.33.64.4.78.78,1.51,1.11,2.26a1.949,1.949,0,0,0,1.69,1.28c.81.1,1.6.22,2.52.37.27.04.55.09.84.13C31.622,37.316,31.462,37.476,31.3,37.626Z"/></g></svg>