<?xml version="1.0" encoding="UTF-8" standalone="no"?><svg xmlns="http://www.w3.org/2000/svg" xmlns:xlink="http://www.w3.org/1999/xlink" contentScriptType="text/ecmascript" fill="#ffffff" width="56.9" zoomAndPan="magnify" contentStyleType="text/css" viewBox="-0.0 -0.1 56.9 76.8" height="76.8" preserveAspectRatio="xMidYMid meet" version="1"><g id="change1_1" data-name="39"><path d="M50.385,3.447H47.911l-.074-.36c-.113-.548-.221-1.072-.313-1.6A1.645,1.645,0,0,0,45.747,0h0Q28.378.009,11.009,0h0A1.646,1.646,0,0,0,9.233,1.49c-.1.54-.21,1.077-.324,1.622l-.07.334h-.6c-.716,0-1.411,0-2.108,0A5.959,5.959,0,0,0,.017,9.518c-.024,3.063-.023,5.552,0,7.834A16.666,16.666,0,0,0,13.252,33.235a1.012,1.012,0,0,1,.766.519,21.409,21.409,0,0,0,8.162,7.94,1.162,1.162,0,0,1,.4.513,17.809,17.809,0,0,1,1.613,7.37c0,.226,0,.239-.341.34-2.883.85-4.77,2.2-5.9,4.192a.765.765,0,0,1-.332.088c-.669.021-1.339.019-2.009.016-.37,0-.74,0-1.109,0-1.418.009-1.971.57-1.972,2l0,8.052c0,.13-.006.259-.013.4h-.6c-.8,0-1.58,0-2.357,0-1.276.014-1.848.592-1.857,1.876-.008,1.436-.007,6.868,0,8.3.006,1.324.592,1.916,1.9,1.916l18.778,0,18.777,0c1.3,0,1.887-.594,1.894-1.923.006-1.409.006-6.815,0-8.225-.006-1.376-.569-1.941-1.945-1.95-.749-.006-1.5,0-2.277,0h-.6V61.012c0-2.96,0-1.923,0-4.883,0-1.323-.569-1.9-1.9-1.916L41.9,54.2a11.489,11.489,0,0,0-1.422.02,2.181,2.181,0,0,1-2.411-1.09c-1.219-1.883-3.334-2.7-5.242-3.253a.826.826,0,0,1-.248-.1.364.364,0,0,1-.016-.137,17.7,17.7,0,0,1,1.677-7.581.815.815,0,0,1,.27-.338,21.785,21.785,0,0,0,8.384-8.155.865.865,0,0,1,.473-.3A16.6,16.6,0,0,0,56.744,16.8q.012-3.482,0-6.965A5.991,5.991,0,0,0,50.385,3.447Zm-39.454,70.1V67.873H45.849v5.673Zm4.819-9.013V57.412H41.006v7.121ZM26.989,39.921A12.538,12.538,0,0,1,19.5,35.792,28.194,28.194,0,0,1,12.92,23.378a44.165,44.165,0,0,1-1.12-18c.036-.254.053-.537.069-.822.024-.457.063-1.148.248-1.3a1.343,1.343,0,0,1,.768-.153c.232,0,.481.017.707.032.263.018.5.025.764.034q5.21-.01,10.417-.005l7.317,0c4.049,0,8.1,0,12.144-.019.407,0,.424.01.488.411,1.532,9.617.5,18.088-3.163,25.9a21.708,21.708,0,0,1-5.076,7.1C33.46,39.28,30.354,40.38,26.989,39.921ZM11.759,29.514A13.432,13.432,0,0,1,3.2,17.322c-.046-2.654-.028-5.309-.006-7.8a2.792,2.792,0,0,1,2.847-2.9c.356-.011.711-.014,1.071-.014.3,0,.595,0,.9,0l.422,0A46.848,46.848,0,0,0,11.759,29.514ZM26.442,43.082h3.951c-.033.13-.067.262-.1.394-.208.808-.423,1.644-.569,2.5s-.221,1.686-.3,2.574c-.021.242-.043.485-.067.731h-1.85ZM22.169,54.141a11.332,11.332,0,0,1,6.33-1.656,10.832,10.832,0,0,1,6.1,1.656ZM48.336,6.676c.207,0,.412-.01.617-.016a16.524,16.524,0,0,1,2.45.049A2.531,2.531,0,0,1,53.521,9c.005.816.023,1.635.04,2.454a48.242,48.242,0,0,1-.248,7.767c-.689,4.848-3.483,8.3-8.3,10.263A46.593,46.593,0,0,0,48.336,6.676ZM38.709,17.1a1.8,1.8,0,0,0-1.31-.9,38.5,38.5,0,0,0-4.32-.63,1.738,1.738,0,0,1-1.58-1.22l-.04-.09c-.55-1.2-1.12-2.45-1.77-3.63a1.814,1.814,0,0,0-1.28-.94,1.859,1.859,0,0,0-1.29.94c-.36.66-.69,1.34-1.02,2.01-.34.71-.7,1.44-1.09,2.129a1.665,1.665,0,0,1-1,.711c-.77.15-1.58.26-2.35.37-.74.1-1.5.21-2.25.35a1.8,1.8,0,0,0-1.29.93,1.858,1.858,0,0,0,.52,1.51c1.06,1.129,2.13,2.18,3.2,3.12a1.4,1.4,0,0,1,.49,1.53c-.34,1.71-.56,3.04-.71,4.3-.06.47.01,1.33.44,1.61a1.982,1.982,0,0,0,1.7-.08c1.21-.56,2.47-1.22,3.95-2.08a1.27,1.27,0,0,1,1.41.01c1.11.62,2.24,1.21,3.34,1.78l.51.26a5.224,5.224,0,0,0,.67.29c.08.03.15.06.22.08l.05.03.06-.01a1.431,1.431,0,0,0,1.1-.49,1.5,1.5,0,0,0,.21-1.23c-.08-.51-.17-1.01-.26-1.52-.19-1.04-.38-2.11-.5-3.17a1.647,1.647,0,0,1,.39-1.17c.54-.58,1.13-1.15,1.69-1.7.54-.51,1.09-1.04,1.6-1.59A1.81,1.81,0,0,0,38.709,17.1Zm-4.3,1.76a20.982,20.982,0,0,1-1.66,1.52,2.431,2.431,0,0,0-.87,2.77c.16.66.27,1.33.39,2.1.04.21.07.43.11.66-.23-.12-.46-.24-.69-.35-.77-.4-1.51-.78-2.21-1.17a2.093,2.093,0,0,0-1.08-.32,2.072,2.072,0,0,0-1.05.31c-.71.41-1.45.79-2.23,1.19-.22.1-.43.21-.65.33.03-.24.07-.48.11-.71.16-.94.32-1.84.4-2.73a2.045,2.045,0,0,0-.44-1.48c-.63-.68-1.3-1.29-2.07-2-.2-.19-.4-.37-.61-.57.3-.05.58-.1.86-.141.94-.159,1.74-.289,2.56-.379a1.993,1.993,0,0,0,1.71-1.27c.35-.75.72-1.5,1.12-2.3l.3-.61c.11.22.22.43.33.64.4.78.78,1.51,1.11,2.26a1.949,1.949,0,0,0,1.69,1.28c.81.1,1.6.22,2.52.37.27.04.55.09.84.13C34.729,18.552,34.569,18.712,34.409,18.862Z"/></g></svg>