<?xml version="1.0" encoding="UTF-8" standalone="no"?><svg xmlns="http://www.w3.org/2000/svg" xmlns:xlink="http://www.w3.org/1999/xlink" contentScriptType="text/ecmascript" fill="#ffffff" width="230" zoomAndPan="magnify" contentStyleType="text/css" viewBox="10.0 55.3 230.0 139.3" height="139" data-name="Шар_1" preserveAspectRatio="xMidYMid meet" version="1"><g id="change1_1"><path d="M211.57,98.7c.18-1.09-1.32-1.03-2.11-1.29-14.51-4.63-40.94-9.95-56.06-10.87-52.44-3.18-117.55,23.21-131.72,78.16-1.91,7.41-2.64,21.35-5.37,27.33-2.77,6.09-6.47.36-6.31-4.76,2.58-79.39,82.72-118.18,153.95-110.54,15.8,1.69,31.27,6.19,46.86,9.03-5.75-4.85-12.85-9.77-19.38-13.7-4.34-2.61-12.73-7.72-17.58-8.29-3.39-.4-8.84,2.56-7.79-2.55.96-4.66,6.82-6.21,10.9-5.86,14.7,1.25,40.68,22.49,53.68,30.73,6.28,3.98,11.12,2.45,8.73,12.66-1.77,7.58-7.29,5.92-12.77,7-17.51,3.43-36.64,8.22-53.82,13.1-3.11.88-8.78,3.68-11.21,4.05-2.15.33-4.85-1.31-3.63-3.67,4.46-8.66,43.66-17.25,53.62-20.55Z"/></g></svg>