<?xml version="1.0" encoding="UTF-8" standalone="no"?><svg xmlns="http://www.w3.org/2000/svg" xmlns:xlink="http://www.w3.org/1999/xlink" contentScriptType="text/ecmascript" fill="#000000" width="1121" zoomAndPan="magnify" contentStyleType="text/css" viewBox="-17.5 0.0 1121.5 1195.4" height="1195" data-name="Layer 2" preserveAspectRatio="xMidYMid meet" version="1"><g data-name="Layer 5"><g><g><g id="change1_4"><path fill="#0e0899" d="m845.49,901.65l9.79-3.68c36.69-13.78,61.35-49.39,61.35-88.6,0-21.46-7-41.7-20.25-58.5l-8.9-10.39,28.54-30.14,13.21,14.64c19.12,24.26,29.23,53.45,29.23,84.4,0,28.31-8.6,55.47-24.86,78.54-15.89,22.54-37.89,39.55-63.61,49.21l-9.79,3.68-14.71-39.16Z"/></g><g id="change2_5"><path fill="#2146db" d="m866.31,927.34l-7.35-19.58c40.75-15.3,68.13-54.84,68.13-98.39,0-22.33-6.83-43.46-19.79-61.4-.87-1.21-11.63-13.33-12.56-14.51l14.39-15.38c.8,1.01,13.47,15.39,14.23,16.42,16.14,21.77,24.64,47.57,24.64,74.86s-7.94,51.22-22.95,72.52c-14.68,20.81-34.99,36.53-58.74,45.45Z"/></g><g id="change3_2"><path fill="#c7fffa" opacity="0.3" d="m864.32,910.13c40.22-16.91,66.95-56.88,66.95-100.76,0-23.14-7.12-45.22-20.59-63.85-.52-.72-2.48-2.98-7.75-8.99-.87-.99-1.78-2.03-2.58-2.95l8.65-9.24c.81.92,1.79,2.05,2.97,3.4,3.18,3.64,7.53,8.62,8.06,9.29,15.56,20.99,23.8,46.02,23.8,72.34s-7.67,49.52-22.19,70.11c-13.38,18.98-31.61,33.58-52.9,42.41l-4.41-11.76Z"/></g></g><g><g id="change1_1"><path fill="#0e0899" d="M849.7 924.02L849.7 740.72 891.53 725.34 891.53 924.02 849.7 924.02z"/></g><g id="change2_1"><path fill="#2146db" d="M881.08 737.28L881.08 913.56 860.16 913.56 860.16 751.18 881.08 737.28z"/></g><g id="change3_1"><path fill="#c7fffa" opacity="0.5" d="M865.39 908.34L865.39 753.98 875.85 747.03 875.85 908.34 865.39 908.34z"/></g></g><g id="change2_6"><path fill="#2146db" d="m1094.03,338.81c-4.67,0-8.58,3.22-9.66,7.55l-75.82-6.6c-.71-5.05-5.16-8.82-10.35-8.56-.98.05-1.91.24-2.79.55l-38.74-78.1c3.21-1.79,5.3-5.28,5.11-9.19-.11-2.18-.92-4.16-2.19-5.74l34.97-57.34c.66.14,1.34.21,2.04.21,5.5,0,9.96-4.46,9.96-9.96s-4.46-9.96-9.96-9.96-9.96,4.46-9.96,9.96c0,3.67,1.99,6.87,4.95,8.6l-34.37,56.35c-1.69-1.09-3.72-1.69-5.88-1.58-4.32.21-7.85,3.16-9.04,7.07l-69.71-13.41c0-.27.01-.54,0-.81-.27-5.5-4.95-9.73-10.44-9.46-2.09.1-3.99.84-5.54,2.02l-65.42-67.63c2.65-1.91,4.32-5.07,4.14-8.58-.2-3.98-2.71-7.29-6.16-8.71l19.78-78.54c1.09.41,2.26.64,3.5.64,5.5,0,9.96-4.46,9.96-9.96s-4.46-9.96-9.96-9.96-9.96,4.46-9.96,9.96c0,3.1,1.42,5.87,3.64,7.7l-20.01,79.43c-.4-.03-.81-.04-1.23-.02-5.3.26-9.42,4.63-9.46,9.87l-80.71,11.19c-.99-4.46-4.96-7.79-9.72-7.79-2.3,0-4.42.79-6.1,2.1l-61.7-57.77c.94-1.52,1.49-3.31,1.49-5.23,0-4.55-3.06-8.38-7.22-9.57l1.09-57.6c5.44-.07,9.83-4.5,9.83-9.96s-4.46-9.96-9.96-9.96-9.96,4.46-9.96,9.96c0,4.46,2.93,8.24,6.97,9.51l-1.09,57.68c-5.32.21-9.57,4.57-9.57,9.95,0,1.08.18,2.11.49,3.09l-73.95,31.27c-1.73-2.96-4.93-4.95-8.6-4.95-4.07,0-7.56,2.44-9.11,5.93l-71.13-18.79c.09-.54.15-1.09.15-1.66,0-5.5-4.46-9.96-9.96-9.96-.81,0-1.6.11-2.35.29l-16.85-52.52c3.55-1.52,6.04-5.05,6.04-9.16,0-5.5-4.46-9.96-9.96-9.96s-9.96,4.46-9.96,9.96,4.46,9.96,9.96,9.96c.3,0,.59-.02.88-.04l17,52.98c-2.82,1.76-4.71,4.88-4.71,8.45,0,1.83.5,3.55,1.37,5.02l-61.64,51.56c-1.75-1.52-4.03-2.45-6.53-2.45-5.5,0-9.96,4.46-9.96,9.96,0,.59.06,1.16.16,1.73l-55.91,19.3,1.02,2.97,55.9-19.3c1.68,3.14,4.98,5.27,8.79,5.27,2.04,0,3.93-.61,5.51-1.66l44.39,48.26c-1.13,1.61-1.79,3.57-1.79,5.69,0,3.72,2.05,6.96,5.07,8.67l-16.86,45.67,2.94,1.09,16.86-45.66c.63.13,1.29.19,1.95.19,5.13,0,9.35-3.87,9.9-8.85l70.99-7.56c1.08,4.34,4.99,7.56,9.66,7.56,1.55,0,3.01-.36,4.32-1l39.38,50.86c-1.84,1.81-2.98,4.32-2.98,7.1s1.13,5.27,2.95,7.07l-58.4,74.87c-1.82-2.04-4.47-3.33-7.42-3.33-3.56,0-6.67,1.87-8.43,4.67l-38.06-18.51-1.37,2.82,38.2,18.58c-.19.77-.3,1.57-.3,2.4,0,5.15,3.9,9.38,8.91,9.91l2.71,51.76c-3.77,1.42-6.46,5.05-6.46,9.32,0,5.5,4.46,9.96,9.96,9.96,3.38,0,6.36-1.69,8.16-4.26l61.41,28.49c-.67,1.34-1.05,2.84-1.05,4.43,0,5.5,4.46,9.96,9.96,9.96s9.96-4.46,9.96-9.96c0-.73-.08-1.44-.23-2.13l113.71-36.07c1.83,2.14,4.54,3.5,7.58,3.5,3.85,0,7.18-2.19,8.84-5.38l144.08,47.7c-.11.68-.15,1.38-.12,2.1.27,5.5,4.95,9.73,10.44,9.46,2.12-.1,4.05-.87,5.61-2.08l47.1,69.16c-1.75,1.9-2.76,4.46-2.63,7.24.24,4.78,3.8,8.6,8.34,9.34l7.32,69.18c-4.15,1.21-7.18,5.03-7.18,9.56,0,5.5,4.46,9.96,9.96,9.96s9.96-4.46,9.96-9.96-4.29-9.77-9.64-9.95l-7.28-68.78c4.98-.77,8.67-5.19,8.41-10.34-.04-.87-.21-1.7-.45-2.49l68.29-34.72c1.94,2.19,4.81,3.52,7.96,3.36,2.69-.13,5.07-1.33,6.78-3.15l53.94,21.23c-.67,1.34-1.06,2.85-1.06,4.45,0,5.5,4.46,9.96,9.96,9.96s9.96-4.46,9.96-9.96-4.46-9.96-9.96-9.96c-2.74,0-5.22,1.1-7.02,2.89l-54.05-21.27c.64-1.4.97-2.98.89-4.63-.27-5.5-4.95-9.73-10.44-9.46-.73.04-1.44.16-2.13.34l-21.69-85.24c2.78-1.89,4.55-5.13,4.37-8.73-.16-3.28-1.9-6.1-4.43-7.79l22.22-70.91c.58.08,1.18.11,1.79.08,4.73-.23,8.51-3.73,9.31-8.2l75.61,6.58c.37,5.17,4.67,9.26,9.93,9.26s9.96-4.46,9.96-9.96-4.46-9.96-9.96-9.96Zm-409.05-170.88c5.18,0,9.43-3.95,9.92-9l80.99-11.23c1.34,4.2,5.36,7.16,9.98,6.93.82-.04,1.6-.19,2.36-.41l66.22,68.46c-1.2,1.74-1.87,3.87-1.76,6.15.15,3,1.61,5.61,3.8,7.33l-25.23,72.34c-.52-.06-1.05-.09-1.59-.06-5.5.27-9.73,4.95-9.46,10.44,0,.1.02.19.03.29l-107.54,26.65c-1.75-1.53-4.03-2.46-6.54-2.46-1.82,0-3.53.5-5,1.35l-56.18-68.9c1.11-1.61,1.76-3.55,1.76-5.65,0-3.6-1.91-6.74-4.77-8.49l41.61-93.85c.47.07.94.11,1.43.11Zm-186.78,41.6c-5.13.14-9.28,4.16-9.65,9.23l-70.86,7.55c-.94-4.53-4.95-7.94-9.76-7.94-2.25,0-4.32.76-5.99,2.02l-44.26-48.13c1.34-1.7,2.15-3.84,2.15-6.18,0-1.87-.52-3.61-1.42-5.1l61.61-51.54c1.76,1.56,4.07,2.52,6.61,2.52,3.83,0,7.15-2.16,8.82-5.33l71.32,18.84c-.03.33-.05.66-.05,1,0,4.43,2.89,8.18,6.89,9.48l-15.42,73.58Zm7.18,17.13c1.89-1.81,3.07-4.36,3.07-7.18,0-4.52-3.01-8.33-7.13-9.55l15.4-73.49c5.49-.02,9.93-4.47,9.93-9.96,0-.72-.08-1.41-.22-2.09l74.25-31.4c1.81,2.47,4.73,4.08,8.03,4.08,2.45,0,4.69-.89,6.42-2.35l61.59,57.67c-1.08,1.59-1.71,3.51-1.71,5.58,0,3.91,2.25,7.28,5.52,8.91l-41.49,93.6c-.74-.17-1.5-.28-2.29-.28-5.17,0-9.42,3.93-9.91,8.97l-68.32,13.84c-1.39-3.83-5.05-6.57-9.36-6.57-1.59,0-3.09.38-4.43,1.05l-39.36-50.83Zm185.63,203.31c-5.5,0-9.96,4.46-9.96,9.96,0,1.31.26,2.56.72,3.7l-113.19,35.91c-1.73-2.94-4.92-4.91-8.58-4.91-2.76,0-5.25,1.12-7.06,2.93l-61.89-28.71c.28-.91.43-1.88.43-2.89,0-5.5-4.46-9.96-9.96-9.96-.14,0-.27.01-.4.02l-2.69-51.3c4.5-.96,7.88-4.95,7.88-9.74,0-1.35-.27-2.64-.76-3.82l59.17-75.85c1.34.67,2.86,1.06,4.46,1.06,5.5,0,9.96-4.46,9.96-9.96,0-.11-.01-.21-.02-.31l67.92-13.76c.99,4.46,4.96,7.8,9.72,7.8,2.26,0,4.34-.76,6.02-2.03l55.94,68.61c-1.57,1.76-2.54,4.08-2.54,6.63,0,4.14,2.53,7.69,6.13,9.2l-11.23,67.45s-.04,0-.07,0Zm162.27,53.9c-3.67.18-6.77,2.33-8.35,5.37l-144.09-47.7c.08-.52.14-1.05.14-1.6,0-4.4-2.85-8.12-6.8-9.44l11.19-67.24c.26.02.52.04.78.04,5.5,0,9.96-4.46,9.96-9.96,0-1.75-.45-3.39-1.24-4.82l106.1-26.29c1.57,3.77,5.37,6.33,9.68,6.12.92-.05,1.8-.22,2.63-.5l52.57,76.07c-3.62,1.64-6.07,5.36-5.86,9.57.12,2.39,1.07,4.54,2.56,6.19l-26.35,64.48c-.93-.23-1.91-.34-2.92-.29Zm140.75,41.16c-2.82,1.88-4.61,5.15-4.43,8.78.06,1.22.35,2.37.8,3.43l-68,34.57c-1.91-2.66-5.08-4.34-8.59-4.16-1.59.08-3.06.53-4.36,1.26l-47.39-69.57c1.14-1.71,1.78-3.79,1.67-6.01-.17-3.37-1.99-6.26-4.64-7.93l26.03-63.7c1.57.87,3.39,1.34,5.32,1.25,3.31-.16,6.16-1.93,7.84-4.51l61.51,13.05c.65,5.11,5.13,8.94,10.37,8.68.76-.04,1.49-.17,2.2-.36l21.69,85.22Zm-21.73-104.41c-1-.27-2.05-.4-3.14-.35-4.67.23-8.42,3.64-9.28,8.04l-60.31-12.79c.25-.96.36-1.97.31-3.01-.27-5.5-4.95-9.73-10.44-9.46-.12,0-.24.03-.37.04l-52.99-76.69c2.58-1.92,4.19-5.04,4.02-8.49-.19-3.85-2.55-7.07-5.83-8.57l24.97-71.61c1.2.43,2.51.64,3.87.58,4.13-.2,7.55-2.9,8.88-6.55l69.87,13.44c0,.09,0,.17,0,.26.27,5.5,4.95,9.73,10.44,9.46.47-.02.93-.09,1.38-.18l38.95,78.51c-2.51,1.92-4.07,5.01-3.9,8.41.19,3.78,2.46,6.97,5.65,8.5l-22.08,70.48Z"/></g><g id="change1_6"><path fill="#0e0899" d="m971.13,958.47c-347.67-22.14-421.48,236.94-421.48,236.94,0,0-3.83-13.59-10.36-33.84-8.8-27.25-22.53-66.57-38.46-101.04-8.13-17.58-16.83-33.9-25.73-46.71-39.36-56.58-111.21-55.11-111.21-55.11l194.79-129.49.06-.04,18.59-12.36,4.5-2.99,20.6-13.7,221.07,18.63,9.84-4.36c1.38,5.25,4.15,15.59,5.82,20.46,5.78,16.79,13.24,31.41,21.65,44.12,12.52,18.86,23.16,35.74,37.61,47,34.92,27.21,72.71,32.47,72.71,32.47Z"/></g><g id="change3_4"><path fill="#c7fffa" d="m593.7,845.04c-70.87,87.47-248.51,155.01-373.99,171.74-80.19,10.69-100.45,1.62-104.72-20.73-.27-1.41-.47-2.84-.61-4.29-.07-.83-.13-1.65-.17-2.48-.46-10.82,2.23-22.33,4.13-32.29,6.39-33.46-26.09-58.31-43.06-57.58-2.71-5.17-11.81-22.14,14.77-44.78-28.55-2.71-46.01-29.77-43.55-36.66,2.46-6.89,20.28-14.02,17.96-39.61-.49-5.43-8.19-10.52-33.22-21.9-48.72-22.15-37.89-31.99,14.77-100.88,15.64-20.47,28.24-34.73,37.56-46.39,22.04-27.59,25.69-40.63,7.71-86.97-8.43-21.72-12.53-45.79-13.04-70.87-1.07-51.07,12.75-106.34,35.19-154.51,6.59-14.16,15-27.93,24.25-40.94,37.7-53.02,89.43-93.16,89.43-93.16,0,0,62,12.92,137.29,91.53,72,75.19,83.58,209.09,84.46,220.64.03.53.05.81.05.81,0,0,31.37,42.07,99.28,50.93-93,52.03-89.56,260.81,45.52,318.39Z"/></g><g id="change2_7"><path fill="#2146db" d="m612.4,837.78c-4.86,6-10.3,11.98-16.27,17.92-80.88,80.58-257.08,153.37-373.96,168.95-51.94,6.92-79.77,2.26-94.09-7.97-9.02-6.44-12.68-15.08-13.65-24.41.21,1.32.53,2.52,1.01,3.4,9.88,17.99,49.81,21.23,144.86-17.29,143.94-58.31,198.56-109.24,206.68-174.2,8.11-64.95-18.09-328.46-18.09-328.46,0,0,3.96,1.56,10.91,4.06,17.61,6.33,54.39,18.74,94.12,27.24,11.98,2.56,24.25,4.77,36.33,6.35-93,52.03-112.94,266.83,22.15,324.41Z"/></g><g id="change1_7"><path fill="#0e0899" opacity="0.3" d="m477.36,805.49c-9,72.03-70.75,124.93-213.13,182.6-50.64,20.52-89.9,30.93-116.66,30.93-7.37,0-13.87-.77-19.49-2.33-9.02-6.44-12.68-15.08-13.65-24.41.21,1.32.53,2.52,1.01,3.4,9.88,17.99,49.81,21.23,144.86-17.29,143.94-58.31,198.56-109.24,206.68-174.2,8.11-64.95-18.09-328.46-18.09-328.46,0,0,3.96,1.56,10.91,4.06,3.71,38.06,25.2,264.59,17.56,325.7Z"/></g><g id="change2_8"><path fill="#2146db" opacity="0.2" d="m466.98,804.2c-8.13,64.96-62.74,115.89-206.68,174.2-95.05,38.51-134.98,35.27-144.86,17.29-.48-.88-.81-2.08-1.01-3.4h0c-.68-4.35-.16-10.01-.16-10.01,2.58,9.9,11.74,10.89,22.4,10.89,23.25,0,85.25-41.34,107.39-84.15,22.15-42.81-36.9-160.91-28.05-186.01,5.44-15.39,19.75-34.96,56.26-56.99,65.99-39.82,102-115.3,90.13-191.45-13.4-85.9-43.05-138.64-93.98-170.09-52.09-32.17-103.83-44.2-130.76-48.56,37.7-53.02,89.43-93.16,89.43-93.16,0,0,62,12.92,137.29,91.53,72,75.19,83.58,209.09,84.46,220.64.03.53.05.81.05.81,0,0,26.21,263.52,18.09,328.46Z"/></g><g id="change2_9"><path fill="#2146db" opacity="0.1" d="m90.37,606.82c-2.69,1.01-4.94,1.81-6.81,2.38,22.04-27.59,25.69-40.63,7.71-86.97-8.43-21.72-12.53-45.79-13.04-70.87,7.64,22.43,31.53,57.61,105.5,75.64,29.8,39.72-57.42,66.23-93.36,79.82Z"/></g><g id="change2_10"><path fill="#2146db" opacity="0.1" d="m11.69,734.96c-1.6-1.82-.29-4.7,2.14-4.78,22.26-.67,98.97,11.84,102.3,21.61,3.78,11.11-46.51,49.3-46.93,42.19s15.29-15.99-7.33-29.14c-19.27-11.21-42.27-20.89-50.17-29.88Z"/></g><g id="change2_11"><path fill="#2146db" opacity="0.1" d="m53.62,819.33s39.12,17.72,90.05,18.08c-35.8,17.72-78.98,19.56-90.05-18.08Z"/></g><g id="change2_12"><path fill="#2146db" opacity="0.1" d="m79.83,897.94s35.77-12.29,61.27,3.51c16.98,10.52,4.8,15.69-10.78,52.3-1.38,3.25-6.24,2.35-6.51-1.18-.68-8.79-2.32-18.37-5.96-25.59-8.86-17.59-23.5-28.17-38.01-29.03Z"/></g><g id="change2_13"><path fill="#2146db" opacity="0.6" d="m971.13,958.47c-347.67-22.14-421.48,236.94-421.48,236.94,0,0-21.06-74.81-48.82-134.87,1.9-33.91-1.38-91.7,34.8-115.35,57.58-37.65,85.25-66.06,85.25-66.06,0,0,88.46,39.5,190.32-1.11,15.01-5.98,32.97-9.84,49.61.98,36.63,64.41,106.29,79.84,110.32,79.47Z"/></g><g id="change2_14"><path fill="#2146db" d="m971.13,958.47c-347.67-22.14-421.48,236.94-421.48,236.94,0,0-3.83-13.59-10.36-33.84-2.85-48.67-31.76-144,5.19-180.96,32.26-32.26,83.27-63.32,83.27-63.32,0,0,39.19,16.62,85.02,15.34,86.01-2.39,125.75-42.78,162.39-33.95,43.55,53.88,95.96,59.79,95.96,59.79Z"/></g><g fill="#c7fffa" opacity="0.2" id="change3_3"><path d="m543.05,1046.26c-.87-.04-1.75-.18-2.62-.45-5.52-1.69-8.63-7.54-6.94-13.06,14.24-46.5,52.68-81.74,100.31-91.97,5.65-1.22,11.21,2.38,12.42,8.03,1.21,5.65-2.38,11.21-8.03,12.42-40.23,8.64-72.68,38.4-84.71,77.65-1.42,4.65-5.8,7.59-10.44,7.39Z"/><path d="m563.73,1069.32c-.87-.04-1.75-.18-2.62-.45-5.52-1.69-8.63-7.54-6.94-13.06,14.24-46.5,52.68-81.74,100.31-91.98,5.65-1.22,11.21,2.38,12.42,8.03,1.21,5.65-2.38,11.21-8.03,12.42-40.23,8.64-72.68,38.4-84.71,77.65-1.42,4.65-5.8,7.59-10.44,7.39Z"/><path d="m583.31,1094.79c-.87-.04-1.75-.18-2.62-.45-5.52-1.69-8.63-7.54-6.94-13.06,14.24-46.5,52.68-81.74,100.31-91.98,5.65-1.22,11.21,2.38,12.42,8.03,1.21,5.65-2.38,11.21-8.03,12.42-40.23,8.64-72.68,38.4-84.71,77.65-1.42,4.65-5.8,7.59-10.44,7.39Z"/></g><g fill="#c7fffa" opacity="0.2" id="change3_12"><path d="m830.85,926.8c-.26-.07-.52-.16-.77-.3-1.57-.86-2.15-2.82-1.3-4.4,7.21-13.23,21.06-21.55,36.16-21.7,1.79-.02,3.26,1.42,3.27,3.21.02,1.79-1.42,3.25-3.21,3.27-12.75.13-24.45,7.15-30.53,18.32-.72,1.32-2.23,1.94-3.63,1.6Z"/><path d="m846.07,941.01c-.27-.04-.53-.12-.79-.23-1.64-.71-2.39-2.62-1.68-4.26,6-13.82,19.07-23.33,34.09-24.83,1.78-.18,3.37,1.12,3.54,2.9.18,1.78-1.12,3.37-2.9,3.54-12.69,1.26-23.72,9.29-28.79,20.96-.6,1.38-2.05,2.13-3.47,1.91Z"/><path d="m861.19,950.22c-.25-.03-.5-.09-.74-.19-1.55-.61-2.31-2.38-1.7-3.93,5.17-13.12,17.06-22.43,31.02-24.3,1.66-.22,3.18.94,3.4,2.6s-.94,3.19-2.6,3.41c-11.79,1.58-21.83,9.44-26.2,20.52-.52,1.31-1.85,2.06-3.18,1.9Z"/><path d="m878.85,958.01c-.22-.05-.44-.14-.64-.25-1.32-.72-1.81-2.37-1.09-3.69,6.05-11.1,17.67-18.08,30.34-18.21,1.5-.02,2.73,1.19,2.75,2.69s-1.19,2.73-2.69,2.75c-10.7.11-20.51,6-25.62,15.37-.6,1.11-1.87,1.63-3.04,1.34Z"/></g><g opacity="0.3" id="change1_17"><path fill="#0e0899" d="m792.68,919.23c.39.26.76.57,1.09.94,2.1,2.33,1.91,5.91-.42,8.01-19.6,17.65-47.32,23.31-72.33,14.78-2.97-1.01-4.55-4.24-3.54-7.2,1.01-2.97,4.24-4.55,7.2-3.54,21.12,7.21,44.53,2.43,61.08-12.47,1.96-1.77,4.82-1.91,6.92-.52Z"/></g><g opacity="0.3" id="change1_3"><path fill="#0e0899" d="m784.06,900.78c.39.26.76.57,1.09.94,2.1,2.33,1.91,5.91-.42,8.01-19.6,17.65-47.32,23.31-72.33,14.78-2.97-1.01-4.55-4.24-3.54-7.2,1.01-2.97,4.24-4.55,7.2-3.54,21.12,7.21,44.53,2.43,61.08-12.47,1.96-1.77,4.82-1.91,6.92-.52Z"/></g><g opacity="0.3" id="change1_2"><path fill="#0e0899" d="m776.44,883.06c.39.26.76.57,1.09.94,2.1,2.33,1.91,5.91-.42,8.01-19.6,17.65-47.32,23.31-72.33,14.78-2.97-1.01-4.55-4.24-3.54-7.2,1.01-2.97,4.24-4.55,7.2-3.54,21.12,7.21,44.53,2.43,61.08-12.47,1.96-1.77,4.82-1.91,6.92-.52Z"/></g><g opacity="0.3" id="change1_5"><path fill="#0e0899" d="m801.04,931.84c.42.22.82.49,1.18.83,2.32,2.1,2.5,5.69.39,8.01-17.72,19.55-44.72,27.98-70.47,22.02-3.06-.7-4.95-3.75-4.25-6.81.71-3.05,3.75-4.95,6.81-4.25,21.74,5.04,44.54-2.08,59.5-18.58,1.77-1.96,4.6-2.39,6.83-1.22Z"/></g><g opacity="0.3" id="change1_16"><path fill="#0e0899" d="m808.98,941.48c.44.17.87.39,1.27.68,2.55,1.82,3.15,5.36,1.33,7.91-15.3,21.49-41.12,33.04-67.39,30.14-3.12-.34-5.36-3.15-5.02-6.26.34-3.11,3.15-5.36,6.26-5.02,22.18,2.45,43.99-7.3,56.91-25.44,1.53-2.15,4.29-2.91,6.64-2.01Z"/></g><g id="change1_8"><path fill="#0e0899" opacity="0.3" d="m839.17,834.88c-37.05,30.06-84.21,48.19-135.64,48.48-55.48.32-106.23-20.16-144.85-54.13-5.03-4.41-9.84-9.07-14.44-13.92.01-.04.02-.08.02-.13-36.78-38.94-59.31-91.47-59.31-149.26,0-62.7,26.53-119.2,68.97-158.89,11.98,2.56,24.25,4.77,36.33,6.35-74.4,41.63-102.04,187.41-40.96,273.54.4-2.67.75-5.32,1.09-7.98,7.5,13.22,18.29,24.92,31.45,34.89,60.52,45.86,171.15,55.02,241.67,4.94l9.84-4.36c1.38,5.25,4.15,15.59,5.82,20.46Z"/></g><g id="change2_15"><path fill="#2146db" d="m702.44,466.13c-110.33,0-199.78,89.45-199.78,199.79s89.45,199.79,199.78,199.79,199.79-89.45,199.79-199.79-89.45-199.79-199.79-199.79Zm0,329.7c-71.75,0-129.91-58.16-129.91-129.91s58.16-129.92,129.91-129.92,129.92,58.17,129.92,129.92-58.16,129.91-129.92,129.91Z"/></g><g id="change1_9"><path fill="#0e0899" opacity="0.6" d="m702.44,492.96c-95.52,0-172.97,77.44-172.97,172.97s77.45,172.97,172.97,172.97,172.97-77.44,172.97-172.97-77.44-172.97-172.97-172.97Zm0,310.71c-76.07,0-137.74-61.67-137.74-137.74s61.67-137.75,137.74-137.75,137.75,61.68,137.75,137.75-61.67,137.74-137.75,137.74Z"/></g><g id="change3_5"><path fill="#c7fffa" d="m702.44,817.84c-83.77,0-151.91-68.15-151.91-151.91s68.15-151.93,151.91-151.93,151.93,68.15,151.93,151.93-68.15,151.91-151.93,151.91Zm0-292.08c-77.28,0-140.16,62.88-140.16,140.17s62.87,140.16,140.16,140.16,140.17-62.87,140.17-140.16-62.88-140.17-140.17-140.17Z"/></g><g fill="#2146db" opacity="0.4" id="change2_2"><circle r="13.29" cx="305.15" cy="246.35"/><circle r="13.29" cx="305.15" cy="246.35"/></g><g fill="#2146db" opacity="0.4" id="change2_3"><circle r="13.29" cx="400.92" cy="423.32"/><circle r="13.29" cx="400.92" cy="423.32"/></g><g fill="#2146db" opacity="0.4" id="change2_16"><circle r="13.29" cx="422.45" cy="555.2"/><circle r="13.29" cx="422.45" cy="555.2"/></g><g opacity="0.4" id="change2_4"><circle fill="#2146db" r="18.82" cx="214.54" cy="183.24"/></g><g fill="#7b15e8" id="change4_3"><path d="M436.46 229.04H620.03V234.26999999999998H436.46z" transform="translate(-35.38 354.25) rotate(-35.95)"/><path d="m455.36,288.38l-3.68-5.08,149.46-108.38,3.68,5.08-.42.31-149.04,108.07Zm-2.22-4.85l2.46,3.39,147.77-107.15-2.46-3.39-147.77,107.15Z"/><path d="M448.44 161.22H453.67V285.61H448.44z" transform="translate(-9.9 21.21) rotate(-2.66)"/><path d="m450.83,286.2l-.02-.52-5.81-124.78,6.27-.29.02.52,5.81,124.78-6.27.29Zm-4.74-124.3l5.73,123.21,4.18-.19-5.73-123.21-4.18.19Z"/><path d="M553.56 36.97H558.79V186.69H553.56z" transform="translate(32.86 330.87) rotate(-34.08)"/><path d="m595.82,176.02l-84.49-124.87,5.2-3.52,84.49,124.87-5.2,3.52Zm-83.04-124.59l83.32,123.14,3.46-2.34-83.32-123.14-3.46,2.34Z"/><path d="M417.96 101.89H545.29V107.12H417.96z" transform="translate(145.23 464.67) rotate(-59.2)"/><path d="m451.45,161.25l-5.39-3.21,65.74-110.27,5.39,3.21-65.74,110.27Zm-3.96-3.58l3.59,2.14,64.67-108.47-3.59-2.14-64.67,108.47Z"/><path d="M520.77 94.93H526V246.58H520.77z" transform="translate(288.58 668.71) rotate(-82.82)"/><path d="m598.74,183.41l-151.49-19.08.78-6.23,151.49,19.08-.78,6.23Zm-150.33-19.98l149.42,18.81.52-4.15-149.42-18.81-.52,4.15Z"/><path d="M309.76 64.93H518.66V70.16000000000001H309.76z" transform="translate(-5.05 86.3) rotate(-11.82)"/><path d="m312.1,92.12l-1.29-6.14,205.49-43.03,1.29,6.14-205.49,43.03Zm-.05-5.33l.86,4.09,203.44-42.6-.86-4.09-203.44,42.6Z"/><path d="M516.44 43.15H712.0500000000001V48.379999999999995H516.44z" transform="translate(-.17 2.4) rotate(-.22)"/><path d="m515.93,49.27l-.02-6.27,196.65-.74.02,6.27-196.65.74Zm1.03-5.23l.02,4.18,194.56-.73-.02-4.18-194.56.73Z"/><path d="M799.11 -10.34H804.34V189.71H799.11z" transform="translate(366.32 768.83) rotate(-63.72)"/><path d="m890.49,137.02l-.47-.23-179.84-88.81,2.78-5.63.47.23,179.84,88.81-2.78,5.63Zm-178.9-89.51l178.43,88.11,1.85-3.75-178.43-88.11-1.85,3.75Z"/><path d="M573.73 110.51H742.95V115.74000000000001H573.73z" transform="translate(148.21 544.37) rotate(-49.96)"/><path d="m605.97,180.31l-4.8-4.04.34-.4,109.21-129.94,4.8,4.04-.34.4-109.21,129.94Zm-3.33-4.16l3.2,2.69,108.2-128.74-3.2-2.69-108.2,128.74Z"/><path d="M736 52.23H741.23V257.05H736z" transform="translate(-15.75 174.53) rotate(-13.34)"/><path d="m759.3,255.52l-.12-.51-47.36-199.81,6.1-1.45.12.51,47.36,199.81-6.1,1.45Zm-46.22-199.54l47,198.28,4.07-.96-47-198.28-4.07.96Z"/><path d="M472.09 284.71H694.75V289.94H472.09z" transform="translate(193.66 807.91) rotate(-79.4)"/><path d="m565.93,397.84l-6.17-1.15.1-.51,41.06-219.37,6.17,1.15-.1.51-41.06,219.37Zm-4.95-1.99l4.11.77,40.77-217.83-4.11-.77-40.77,217.83Z"/><path d="M541.75 326.6H778.25V331.83000000000004H541.75z" transform="translate(-69.79 435.89) rotate(-34.83)"/><path d="m564.3,399.62l-3.58-5.15.43-.3,194.56-135.38,3.58,5.15-.43.3-194.56,135.38Zm-2.13-4.89l2.39,3.43,193.27-134.48-2.39-3.43-193.27,134.48Z"/><path d="M505.33 266.5H510.56V419.97H505.33z" transform="translate(-92.29 467.88) rotate(-45.78)"/><path d="m561.13,399.36l-110.73-107.76,4.38-4.5,110.73,107.76-4.37,4.5Zm-109.25-107.78l109.23,106.3,2.92-3-109.23-106.3-2.92,3Z"/><path d="M675.97 129.21H681.2V305.56H675.97z" transform="translate(195.51 741.19) rotate(-65.08)"/><path d="m757.7,257.6l-.47-.22-160.4-74.53,2.64-5.69.47.22,160.4,74.53-2.64,5.69Zm-159.49-75.25l158.98,73.86,1.76-3.79-158.98-73.86-1.76,3.79Z"/><path d="M733.7 189.98H912.94V195.20999999999998H733.7z" transform="translate(95.16 622.4) rotate(-43.72)"/><path d="m760.34,257.16l-4.34-4.53,130.3-124.61,4.34,4.53-130.3,124.61Zm-2.86-4.5l2.89,3.02,128.79-123.16-2.89-3.02-128.79,123.16Z"/><path d="M380.04 49H385.27000000000004V199.5H380.04z" transform="translate(86.18 396.22) rotate(-60.52)"/><path d="m447.07,164.27l-131.93-74.57,3.09-5.46,131.93,74.57-3.09,5.46Zm-130.51-74.97l130.11,73.55,2.06-3.64-130.11-73.55-2.06,3.64Z"/><path d="M687.65 288.98H692.88V527.4100000000001H687.65z" transform="translate(275.69 1094.64) rotate(-89.47)"/><path d="m809.97,412.44h-.52s-238.94-2.22-238.94-2.22l.06-6.27h.52s238.94,2.22,238.94,2.22l-.06,6.27Zm-238.41-3.26l237.37,2.2.04-4.18-237.37-2.2-.04,4.18Z"/><path d="M783.24 250.77H788.47V412.82000000000005H783.24z" transform="translate(-62.59 243.51) rotate(-16.95)"/><path d="m806.63,410.71l-.15-.5-47.39-155.51,6-1.83.15.5,47.39,155.51-6,1.83Zm-46.24-155.31l46.94,154.01,4-1.22-46.94-154.01-4,1.22Z"/><path d="M838.97 201.26H844.2V373.02H838.97z" transform="translate(254.39 954.91) rotate(-67.51)"/><path d="m920.22,323.08l-.48-.2-159.18-65.89,2.4-5.8.48.2,159.18,65.89-2.4,5.8Zm-158.3-66.66l157.73,65.29,1.6-3.86-157.73-65.29-1.6,3.86Z"/><path d="M901.9 129.24H907.13V321.4H901.9z" transform="translate(-25.2 157.93) rotate(-9.84)"/><path d="m917.94,321.03l-.09-.52-32.94-189.85,6.18-1.07.09.52,32.94,189.85-6.18,1.07Zm-31.82-189.51l32.67,188.3,4.12-.71-32.67-188.3-4.12.71Z"/><path d="M1019.45 272.96L886.33 132.59 889.84 128.71 1022.95 269.08 1019.45 272.96z"/><path d="m1019.48,273.7l-.39-.35-133.5-140.72,4.21-4.65.39.35,133.5,140.72-4.21,4.65Zm-132.41-141.14l132.34,139.67,2.81-3.1-132.34-139.67-2.81,3.1Z"/><path d="M922.22 328.17L919.66 323.61 1028.78 266.89 1031.34 271.45 922.22 328.17z"/><path d="m922.02,328.88l-3.07-5.47.46-.26,109.58-56.97,3.07,5.47-.46.26-109.58,56.97Zm-1.65-5.07l2.05,3.65,108.21-56.2-2.05-3.65-108.21,56.2Z"/><path d="M794.36 363.32H933.85V368.55H794.36z" transform="translate(-40.17 616.68) rotate(-38.45)"/><path d="m811.02,412.08l-3.9-4.91,110.06-87.38,3.9,4.91-110.06,87.38Zm-2.43-4.75l2.6,3.28,108.42-86.08-2.6-3.28-108.42,86.08Z"/><path d="M1043.81 455.92L1024.49 278.15 1029.72 277.91 1049.03 455.68 1043.81 455.92z"/><path d="m1043.31,456.47l-19.36-178.81,6.27-.3,19.36,178.81-6.27.3Zm-18.27-177.82l19.27,176.72,4.18-.2-19.27-176.72-4.18.2Z"/><path d="M923.74 472.19H1052.48V477.42H923.74z" transform="translate(-98 325.89) rotate(-17.86)"/><path d="m927.31,497.7l-1.92-5.97,123.52-39.81,1.92,5.97-123.52,39.81Zm-.61-5.3l1.28,3.98,121.54-39.17-1.28-3.98-121.54,39.17Z"/><path d="M922.38 323.28H927.61V494.56999999999994H922.38z" transform="translate(-8.6 20.03) rotate(-1.23)"/><path d="m923.72,495.14l-3.71-172.29,6.27-.13,3.71,172.29-6.27.13Zm-2.65-171.27l3.67,170.2,4.18-.09-3.67-170.2-4.18.09Z"/><path d="M983.65 297.95H988.88V480.40999999999997H983.65z" transform="translate(4.84 790.42) rotate(-43.77)"/><path d="m1047.47,457.61l-.36-.38-126.58-132.13,4.53-4.34.36.38,126.58,132.13-4.53,4.34Zm-125.47-132.48l125.5,131,3.02-2.89-125.5-131-3.02,2.89Z"/><path d="M863.15 374.52H868.38V525.63H863.15z" transform="translate(-7.68 885.06) rotate(-53.94)"/><path d="m925.42,497.4l-123.01-89.56,3.69-5.07,123.01,89.56-3.69,5.07Zm-121.55-89.79l121.32,88.33,2.46-3.38-121.32-88.33-2.46,3.38Z"/><path d="M952.52 489.01H957.75V638.99H952.52z" transform="translate(-142.21 402.08) rotate(-22.17)"/><path d="m980.72,635.11l-56.98-139.86,5.81-2.37.2.48,56.79,139.38-5.81,2.37Zm-55.62-139.29l56.2,137.93,3.87-1.58-56.2-137.92-3.87,1.58Z"/><path d="M922.83 542.5H1110.97V547.73H922.83z" transform="translate(180.04 1339.41) rotate(-71.7)"/><path d="m990.18,635.91l-5.96-1.97.16-.5,59.22-179.13,5.96,1.97-.16.5-59.22,179.13Zm-4.64-2.63l3.97,1.31,58.72-177.64-3.97-1.31-58.72,177.64Z"/><path d="M196.4 129.02H328.64V134.25H196.4z" transform="translate(-20.77 209.04) rotate(-41.91)"/><path d="m215.01,178.48l-4.19-4.67,99.2-89.03,4.19,4.67-99.2,89.03Zm-2.71-4.59l2.79,3.11,97.64-87.63-2.79-3.11-97.64,87.63Z"/><path d="M233.97 163.47H388.25V168.7H233.97z" transform="translate(141.58 475.32) rotate(-89.36)"/><path d="m313.38,243.77l-6.27-.07v-.52s1.73-154.79,1.73-154.79l6.27.07v.52s-1.73,154.79-1.73,154.79Zm-5.22-1.1l4.18.05,1.71-153.23-4.18-.05-1.71,153.23Z"/><path d="M295.36 198.65H458.62V203.88H295.36z" transform="translate(-50.26 210.45) rotate(-29.33)"/><path d="m306.9,244.24l-3.07-5.47.46-.26,142.79-80.22,3.07,5.47-.46.26-142.79,80.22Zm-1.65-5.07l2.05,3.65,141.43-79.45-2.05-3.65-141.43,79.45Z"/><path d="M379.48 189.48H384.71000000000004V339.27H379.48z" transform="translate(20.54 556.21) rotate(-73.59)"/><path d="m453.56,288.69l-.5-.15-144.19-42.47,1.77-6.02.5.15,144.19,42.47-1.77,6.02Zm-143.4-43.32l142.69,42.02,1.18-4.01-142.69-42.02-1.18,4.01Z"/><path d="M358.35 351.2H496.38V356.43H358.35z" transform="translate(-59.67 619.57) rotate(-68.24)"/><path d="m404.5,419.56l-5.83-2.33,51.57-129.16,5.83,2.33-51.57,129.16Zm-4.47-2.91l3.88,1.55,50.79-127.22-3.88-1.55-50.79,127.22Z"/><path d="M401.54 409.14H559.98V414.37H401.54z" transform="translate(-30.55 38.61) rotate(-4.46)"/><path d="m401.5,421.08l-.49-6.26.52-.04,158.48-12.34.49,6.26-.52.04-158.48,12.34Zm.64-5.29l.32,4.17,156.92-12.22-.33-4.17-156.92,12.22Z"/><path d="M395.36 479.27H585.36V484.5H395.36z" transform="translate(-197.01 495.47) rotate(-45.63)"/><path d="m425.8,552.36l-4.49-4.39,133.6-136.56,4.49,4.39-133.6,136.56Zm-3.01-4.4l2.99,2.92,132.13-135.07-2.99-2.92-132.13,135.07Z"/><path d="M592.07 410.98H597.3000000000001V506.53000000000003H592.07z" transform="translate(-138.11 294.07) rotate(-24.98)"/><path d="m612.23,503.86l-.22-.47-40.57-87.08,5.69-2.65.22.47,40.57,87.08-5.69,2.65Zm-39.4-87.05l39.91,85.66,3.79-1.77-39.91-85.66-3.79,1.77Z"/><path d="M697.24 451.71H804.61V456.94H697.24z" transform="translate(-118.08 577.3) rotate(-39.23)"/><path d="m710.92,491.04l-3.97-4.86,83.97-68.57,3.97,4.86-83.97,68.57Zm-2.5-4.71l2.65,3.24,82.35-67.25-2.65-3.24-82.35,67.25Z"/><path d="M809.08 419.86H814.3100000000001V521.27H809.08z" transform="translate(-13.36 23.84) rotate(-1.67)"/><path d="m810.05,521.86l-2.98-102.42,6.27-.18,2.98,102.42-6.27.18Zm-1.91-101.4l2.92,100.33,4.18-.12-2.92-100.33-4.18.12Z"/><path d="M842.66 520.85H938.1999999999999V526.08H842.66z" transform="translate(-141.06 577.48) rotate(-33.45)"/><path d="m851.86,552.7l-3.46-5.24,80.59-53.23,3.46,5.24-80.59,53.23Zm-2.01-4.94l2.31,3.49,78.85-52.08-2.31-3.49-78.85,52.08Z"/><path d="M929.64 579.97H934.87V682.48H929.64z" transform="translate(169.33 1459.17) rotate(-81.44)"/><path d="m982.99,642.04l-102.41-15.41.93-6.2,102.41,15.41-.93,6.2Zm-101.22-16.29l100.34,15.1.62-4.14-100.34-15.1-.62,4.14Z"/><path d="M858.91 771.32L854.97 767.88 980.97 637.14 984.91 640.57 858.91 771.32z"/><path d="m858.96,772.05l-4.73-4.12,126.69-131.53,4.73,4.12-126.69,131.53Zm-3.26-4.22l3.15,2.75,125.32-129.95-3.15-2.75-125.32,129.95Z"/></g><g id="change4_7"><circle fill="#7b15e8" r="57.57" cx="568.11" cy="401.92"/></g><g id="change4_8"><circle fill="#7b15e8" r="34.94" cx="455.91" cy="286.03"/></g><g id="change1_10"><circle fill="#0e0899" r="8.86" cx="614.79" cy="503.5"/></g><g id="change4_9"><circle fill="#7b15e8" r="8.86" cx="614.79" cy="500.09"/></g><g id="change5_7"><circle fill="#fc38db" r="4.37" cx="614.79" cy="500.09"/></g><g id="change1_11"><circle fill="#0e0899" r="8.86" cx="715.73" cy="484.31"/></g><g id="change4_10"><circle fill="#7b15e8" r="8.86" cx="715.73" cy="480.9"/></g><g id="change1_12"><circle fill="#0e0899" r="8.86" cx="811.32" cy="517.43"/></g><g id="change4_11"><circle fill="#7b15e8" r="8.86" cx="811.32" cy="514.02"/></g><g id="change1_13"><circle fill="#0e0899" r="8.86" cx="848.97" cy="554.53"/></g><g id="change4_12"><circle fill="#7b15e8" r="8.86" cx="848.97" cy="551.11"/></g><g id="change1_14"><circle fill="#0e0899" r="8.86" cx="883.02" cy="627.11"/></g><g id="change4_13"><circle fill="#7b15e8" r="8.86" cx="883.02" cy="623.7"/></g><g id="change1_15"><circle fill="#0e0899" r="8.86" cx="860.54" cy="769.84"/></g><g id="change4_14"><circle fill="#7b15e8" r="8.86" cx="860.54" cy="766.43"/></g><g><g id="change5_29"><circle fill="#fc38db" r="33.95" cx="760.39" cy="253.92"/></g><g id="change4_15"><circle fill="#7b15e8" r="33.95" cx="760.39" opacity="0.5" cy="253.92"/></g></g><g><g id="change5_3"><circle fill="#fc38db" r="20.3" cx="921.67" cy="319.61"/></g><g id="change4_4"><circle fill="#7b15e8" r="20.3" cx="921.67" opacity="0.3" cy="319.61"/></g></g><g><g id="change5_5"><circle fill="#fc38db" r="20.3" cx="929.06" cy="494.18"/></g><g id="change4_5"><circle fill="#7b15e8" r="20.3" cx="929.06" opacity="0.3" cy="494.18"/></g></g><g><g id="change5_30"><circle fill="#fc38db" r="31.12" cx="603.91" cy="177.89"/></g><g id="change4_17"><circle fill="#7b15e8" r="31.12" cx="603.91" opacity="0.5" cy="177.89"/></g></g><g><g id="change5_33"><circle fill="#fc38db" r="22.51" cx="449.02" cy="159.19"/></g><g id="change4_19"><circle fill="#7b15e8" r="22.51" cx="449.02" opacity="0.5" cy="159.19"/></g></g><g fill="#7b15e8" id="change4_16"><circle r="13.29" cx="212.97" cy="182.23"/><circle r="19.44" cx="212.32" cy="176.88"/></g><g><g id="change5_1"><circle fill="#fc38db" r="13.29" cx="305.33" cy="240.76"/></g><g id="change4_1"><circle fill="#7b15e8" r="13.29" cx="305.33" cy="240.76"/></g></g><g><g id="change5_31"><circle fill="#fc38db" r="13.29" cx="401.29" cy="417.42"/></g><g id="change4_18"><circle fill="#7b15e8" r="13.29" cx="401.29" cy="417.42"/></g></g><g><g id="change5_2"><circle fill="#fc38db" r="13.29" cx="421.96" cy="549.54"/></g><g id="change4_2"><circle fill="#7b15e8" r="13.29" cx="421.96" cy="549.54"/></g></g><g><g id="change5_6"><circle fill="#fc38db" r="39.49" cx="809.11" cy="410.4"/></g><g id="change4_6"><circle fill="#7b15e8" r="39.49" cx="809.11" opacity="0.5" cy="410.4"/></g></g><g id="change5_8"><circle fill="#fc38db" r="18.08" cx="809.11" cy="410.4"/></g><g fill="#fc38db" id="change5_4"><circle r="18.08" cx="759.74" cy="252.75"/><circle r="18.08" cx="759.74" cy="252.75" opacity="0.5"/></g><g fill="#fc38db" id="change5_32"><circle r="18.08" cx="602.51" cy="178.2"/><circle r="18.08" cx="602.51" cy="178.2" opacity="0.5"/></g><g id="change5_9"><circle fill="#fc38db" r="21.04" cx="888.09" cy="130.65"/></g><g id="change5_10"><circle fill="#fc38db" r="33.86" cx="567.34" cy="403.05"/></g><g id="change3_6"><circle fill="#c7fffa" r="13.93" cx="567.34" cy="403.05"/></g><g id="change3_7"><circle fill="#c7fffa" r="5.76" cx="421.71" cy="549.31"/></g><g id="change3_8"><circle fill="#c7fffa" r="5.76" cx="401.16" cy="417.36"/></g><g id="change3_9"><circle fill="#c7fffa" r="5.76" cx="305.12" cy="241.15"/></g><g id="change3_10"><circle fill="#c7fffa" r="6.46" cx="211.77" cy="177.33"/></g><g id="change5_11"><circle fill="#fc38db" r="22.64" cx="455.49" cy="285.72"/></g><g id="change3_11"><circle fill="#c7fffa" r="9.47" cx="455.49" cy="285.72"/></g><g id="change5_12"><circle fill="#fc38db" r="21.04" cx="1025.75" cy="273.36"/></g><g id="change5_13"><circle fill="#fc38db" r="4.18" cx="996.47" cy="171.62"/></g><g id="change5_14"><circle fill="#fc38db" r="21.04" cx="1047.53" cy="456.17"/></g><g id="change5_15"><circle fill="#fc38db" r="21.04" cx="987.74" cy="634.43"/></g><g id="change5_16"><circle fill="#fc38db" r="21.04" cx="712.78" cy="48.35"/></g><g id="change5_17"><circle fill="#fc38db" r="21.04" cx="514.22" cy="49.82"/></g><g id="change5_18"><circle fill="#fc38db" r="21.04" cx="315.66" cy="88.95"/></g><g id="change5_19"><circle fill="#fc38db" r="4.37" cx="715.61" cy="480.47"/></g><g id="change5_20"><circle fill="#fc38db" r="4.37" cx="811.11" cy="514.36"/></g><g id="change5_21"><circle fill="#fc38db" r="4.37" cx="848.97" cy="551.11"/></g><g id="change5_22"><circle fill="#fc38db" r="4.37" cx="883" cy="623.52"/></g><g id="change5_23"><circle fill="#fc38db" r="4.37" cx="860.54" cy="766.43"/></g><g id="change5_24"><circle fill="#fc38db" r="4.18" cx="813.08" cy="47.33"/></g><g id="change5_25"><circle fill="#fc38db" r="4.18" cx="612.3" cy="10.24"/></g><g id="change5_26"><circle fill="#fc38db" r="4.18" cx="403.46" cy="31.05"/></g><g id="change5_27"><circle fill="#fc38db" r="4.18" cx="1093.11" cy="349.02"/></g><g id="change5_28"><circle fill="#fc38db" r="4.18" cx="1070.04" cy="566.03"/></g></g></g></svg>